<svg width="139" height="90" viewBox="0 0 139 90" fill="none" xmlns="http://www.w3.org/2000/svg">
<g clip-path="url(#clip0_116_514)">
<path d="M14.3484 28.1093C39.18 27.691 70.5999 27.0989 95.3248 26.9034C104.214 26.8056 113.082 26.7948 121.966 26.773L120.701 28.4787C120.482 27.8051 120.199 27.0338 119.889 26.3656C113.712 13.0629 101.961 13.9537 90.9094 20.4829L90.0659 20.9609L89.3825 20.271C80.744 11.9113 67.9358 8.52724 56.8253 13.5789C53.0453 15.2302 49.5216 17.5659 46.3449 20.3091L45.8858 20.0972C34.3269 14.9043 19.1375 13.2204 14.3484 28.1093ZM14.3484 28.1093C17.3436 16.7457 26.8523 13.9374 37.29 15.8603C40.4827 16.447 43.5473 17.3541 46.5531 18.6415L45.7042 18.761C58.6299 6.92482 74.6949 5.52882 88.7311 16.3492C89.5747 17.0119 90.3595 17.6637 91.1817 18.4676L89.6548 18.2558C92.5164 16.5665 95.549 15.089 98.8165 14.1601C103.771 12.6935 109.393 12.7152 113.942 15.4421C119.024 18.4079 122.281 23.7909 123.733 29.4455C88.4855 29.4618 49.7085 28.734 14.3537 28.1039H14.3484V28.1093Z" fill="#9E7D46"/>
<path d="M46.8627 18.6691C46.8627 20.9613 44.9353 22.5203 42.7356 21.9662C42.725 19.6631 44.6684 18.1259 46.8627 18.6691Z" fill="#9E7D46"/>
<path d="M90.2793 18.669C90.1031 21.0265 88.037 22.5529 85.7786 21.9662C85.9441 19.6033 88.0263 18.0933 90.2793 18.669Z" fill="#9E7D46"/>
<path d="M14.8608 57.5068C50.6587 65.1658 87.9782 65.5352 123.76 57.5068C115.063 60.5487 106.051 62.7215 96.921 64.1012C70.2581 68.0502 40.4826 66.2088 14.8608 57.5068Z" fill="#9E7D46"/>
<path d="M29.559 34.5244C32.2392 34.6058 34.5243 35.2522 35.6401 36.1431L33.1201 39.6847L32.6396 39.576L31.7907 36.0073C31.4437 35.8443 30.5414 35.7085 29.9862 35.7085C27.0123 35.7085 25.3412 36.7895 25.3412 38.142C25.3412 39.2501 26.1901 40.0866 27.4128 40.8417C30.9739 42.8949 36.2274 44.921 35.2184 49.6468C34.898 51.1623 33.7822 52.8082 31.3156 53.5632C29.1106 54.2096 26.5105 54.2368 24.0118 53.8348C21.8335 53.5361 19.495 52.4279 18.1443 51.1623L20.6162 47.7293L21.0167 47.838L21.8389 51.5914C22.4742 52.1075 23.6434 52.5094 24.519 52.5909C28.3951 52.8625 29.3775 51.2655 29.4843 49.9456C29.6178 48.593 29.2173 47.7022 28.3151 47.1644C26.5105 46.1106 23.9051 44.7038 23.0295 44.1117C21.3317 43.0579 20.109 41.4663 20.1891 39.7064C20.3493 35.9801 24.1987 34.356 29.5644 34.5189L29.559 34.5244Z" fill="#294C24"/>
<path d="M39.8633 51.5153C39.5963 52.0313 39.7565 52.5147 40.5787 52.5147H41.2674V53.7586H36.0886V52.5147H36.8307C37.6529 52.5147 37.9466 52.3518 38.3684 51.4066L44.5829 34.8447H47.3699C48.1654 34.8447 48.7794 35.5998 49.0677 36.5178L52.8637 49.8096C53.2908 51.298 54.3479 51.4827 55.8909 50.4289L56.318 51.0481C54.4334 53.3187 52.175 54.1552 50.7174 54.1552C49.073 54.1552 48.3523 52.7212 48.064 51.7217L46.7879 46.8601H41.5024L39.8579 51.5044L39.8633 51.5153ZM44.5883 38.5764L41.9882 45.6542H46.3982L44.5936 38.5764H44.5883Z" fill="#294C24"/>
<path d="M72.7674 53.7586H70.9361C69.927 53.7586 68.7578 53.085 67.6953 51.0589L60.3916 38.5221L59.4893 51.3848C59.4626 52.0856 59.516 52.6831 60.3649 52.6831H61.2405V53.764H56.1685V52.6831H56.9907C57.7328 52.6831 57.9463 52.33 58.0264 51.3848L59.0355 36.9305C59.0889 36.4145 58.7152 36.094 58.2667 36.094H57.3911V34.8501H63.974L71.5714 48.142L72.3669 37.1206C72.4203 36.4199 72.1267 36.0668 71.5714 36.0668H70.4289V34.8501H75.9013V36.0668H74.8656C74.2035 36.0668 74.0167 36.4199 73.9633 37.1206L72.7674 53.764V53.7586Z" fill="#294C24"/>
<path d="M79.0086 36.7894C79.062 36.2516 78.795 36.0343 78.3466 36.0343H77.1506V34.8447H86.8943C92.6017 34.8447 94.8067 38.3049 94.8067 42.2213C94.8067 45.5999 94.5931 49.625 92.2066 52.0313C90.6689 53.574 86.606 54.2475 84.5345 53.8944C83.819 53.7858 83.0716 53.4056 82.3295 52.9221C81.8222 53.5685 81.1068 53.7586 80.3914 53.7586H77.7379L79.0139 36.7894H79.0086ZM84.2141 36.0072L83.125 50.896C83.0716 51.2491 82.9915 51.5424 82.9114 51.814C83.3118 52.0856 83.8137 52.3246 84.5024 52.5962C86.4672 53.0579 87.7165 51.8955 88.5387 49.7879C89.3609 47.7075 89.441 44.7362 89.441 41.5749C89.441 37.3054 87.7699 36.0072 85.645 36.0072H84.2088H84.2141Z" fill="#294C24"/>
<path d="M99.4037 36.7622C99.4571 36.2516 99.2435 36.0886 98.8751 36.0886H97.786V34.8447H106.494V36.0886H105.431C105.164 36.0886 105.004 36.2516 104.951 36.7622L103.808 51.8086C103.755 52.3192 103.862 52.5093 104.337 52.5093H105.373V53.7532H96.6648V52.5093H97.7273C98.0476 52.5093 98.2078 52.3463 98.2558 51.8357L99.3984 36.7622H99.4037Z" fill="#294C24"/>
<path d="M110.002 36.7079C110.055 36.1701 109.735 36.0343 109.473 36.0343H108.144V34.8447H123.76V36.143H115.474L114.919 43.1936H122.276V44.4646H114.812L114.203 52.4333H123.258V53.7586H110.407C109.398 53.7586 108.763 52.9764 108.843 52.1671L110.012 36.7133L110.002 36.7079Z" fill="#294C24"/>
<path d="M37.4502 77.7789C37.2153 77.6159 37.0391 77.4258 36.9216 77.2194C37.0818 76.9369 37.1619 76.8011 37.3167 76.5187C37.4288 76.7088 37.5783 76.8772 37.7705 77.0184C37.9627 77.1596 38.1603 77.252 38.3738 77.2954C38.6248 77.3443 38.8223 77.328 38.9665 77.2357C39.1106 77.1488 39.2014 77.0075 39.2387 76.8228C39.2654 76.6816 39.2494 76.5621 39.196 76.4589C39.1426 76.3611 39.0679 76.2742 38.9718 76.2036C38.8757 76.133 38.7369 76.0461 38.5554 75.9374C38.3098 75.7962 38.1122 75.6658 37.9627 75.5409C37.8132 75.416 37.7011 75.2422 37.621 75.0249C37.541 74.8076 37.5356 74.536 37.5997 74.2047C37.6584 73.9276 37.7599 73.6832 37.9093 73.4768C38.0588 73.2704 38.2564 73.1237 38.4913 73.0314C38.7262 72.939 38.9985 72.9227 39.2975 72.9825C39.5164 73.0259 39.7139 73.1074 39.9061 73.2269C40.0983 73.3464 40.2532 73.4876 40.3813 73.6615C40.2371 73.9494 40.1677 74.096 40.0236 74.3839C39.8954 74.221 39.7566 74.0906 39.6071 73.9928C39.4576 73.895 39.3028 73.8299 39.148 73.7973C38.9077 73.7484 38.7155 73.7755 38.5767 73.8679C38.4379 73.9657 38.3471 74.1069 38.3098 74.297C38.2831 74.4328 38.2938 74.5523 38.3471 74.6555C38.4005 74.7587 38.4753 74.8456 38.5714 74.9162C38.6675 74.9869 38.801 75.0738 38.9771 75.1715C39.2281 75.3128 39.4256 75.4486 39.5698 75.5681C39.7139 75.6876 39.8314 75.856 39.9115 76.0732C39.9969 76.2905 40.0076 76.5567 39.9488 76.8826C39.9008 77.1596 39.7993 77.3986 39.6499 77.605C39.5004 77.8114 39.3028 77.9635 39.0572 78.0559C38.8116 78.1482 38.5287 78.1645 38.2137 78.0993C37.9414 78.045 37.6851 77.9364 37.4502 77.7734V77.7789Z" fill="#231F20"/>
<path d="M42.3674 77.6322C42.1538 78.0613 42.0471 78.2786 41.8335 78.7077C41.5398 78.6588 41.3957 78.6316 41.1021 78.5773C42.0844 76.6925 42.5703 75.7527 43.5099 73.8516C43.7822 73.895 43.921 73.9222 44.1933 73.9656C44.4976 76.0678 44.6578 77.1216 44.9995 79.2237C44.7005 79.1803 44.551 79.1531 44.252 79.1097C44.1826 78.6316 44.1506 78.3926 44.0865 77.9201C43.3978 77.8114 43.0561 77.7517 42.3674 77.6322ZM43.6968 74.9054C43.3124 75.7038 43.1148 76.1058 42.7251 76.8989C43.227 76.9858 43.4779 77.0292 43.9798 77.1107C43.8623 76.2307 43.8036 75.7908 43.6968 74.9054Z" fill="#231F20"/>
<path d="M49.9221 79.8974C49.6872 79.8702 49.5697 79.8539 49.3295 79.8268C48.7262 78.409 48.4272 77.6974 47.8559 76.2688C47.6797 77.5942 47.5943 78.2569 47.4235 79.5769C47.1405 79.5389 46.9963 79.5171 46.7134 79.4791C46.9857 77.4693 47.1245 76.4644 47.3968 74.4546C47.6263 74.4872 47.7385 74.5035 47.968 74.5361C48.5286 75.9592 48.8223 76.6654 49.4149 78.0831C49.5751 76.7577 49.6498 76.1005 49.81 74.7751C50.0823 74.8077 50.2211 74.824 50.4987 74.8566C50.2691 76.8718 50.1517 77.8767 49.9221 79.8919V79.8974Z" fill="#231F20"/>
<path d="M55.1223 75.6498C55.3946 75.8833 55.5922 76.1984 55.7256 76.5949C55.8591 76.9914 55.9018 77.4369 55.8645 77.942C55.8271 78.4418 55.7096 78.8763 55.5174 79.2457C55.3252 79.6151 55.0689 79.8921 54.7539 80.0768C54.4389 80.2615 54.0919 80.3375 53.7022 80.2995C53.0668 80.2397 52.7518 80.2071 52.1218 80.1419C52.3247 78.1267 52.4261 77.1164 52.629 75.0957C53.243 75.1609 53.5473 75.188 54.1613 75.2478C54.535 75.2804 54.8554 75.4162 55.1277 75.6498H55.1223ZM54.4229 79.3054C54.6258 79.1805 54.7913 78.9958 54.9141 78.7514C55.0369 78.5069 55.1117 78.2136 55.1437 77.8768C55.1704 77.5346 55.1437 77.2304 55.0636 76.9697C54.9835 76.7035 54.8554 76.4971 54.6792 76.345C54.503 76.193 54.2948 76.1006 54.0439 76.0789C53.7235 76.0463 53.558 76.0354 53.2377 76.0028C53.1095 77.3499 53.0455 78.0289 52.9173 79.376C53.2484 79.4086 53.4139 79.4249 53.7449 79.4575C53.9958 79.4793 54.2254 79.4304 54.4283 79.3109L54.4229 79.3054Z" fill="#231F20"/>
<path d="M61.6517 80.821C61.3421 80.8102 61.1872 80.8047 60.8776 80.7884C60.5999 79.3164 60.4665 78.5776 60.2049 77.1002C59.7938 78.5396 59.5855 79.2621 59.1531 80.7015C58.8434 80.6852 58.6886 80.6744 58.3789 80.6581C58.0212 78.6048 57.8557 77.5782 57.53 75.5249C57.8183 75.5466 57.9625 75.5521 58.2561 75.5738C58.4964 77.0947 58.6245 77.8498 58.8808 79.3707C59.3239 77.8932 59.5375 77.1545 59.9646 75.6716C60.2209 75.6824 60.3544 75.6933 60.6106 75.7042C60.8829 77.2305 61.0217 77.9964 61.31 79.5174C61.7211 78.0182 61.924 77.274 62.3191 75.7748C62.586 75.7856 62.7195 75.7911 62.9865 75.7965C62.4686 77.8117 62.1963 78.8166 61.6464 80.821H61.6517Z" fill="#231F20"/>
<path d="M65.5226 75.8507C65.4959 77.8768 65.4852 78.8926 65.4585 80.9187C65.1702 80.9187 65.0261 80.9133 64.7324 80.9078C64.7698 78.8817 64.7858 77.8659 64.8232 75.8398C65.1008 75.8398 65.245 75.8453 65.5226 75.8507Z" fill="#231F20"/>
<path d="M68.3737 80.6745C68.0801 80.4518 67.8505 80.1422 67.6796 79.7402C67.5141 79.3437 67.4287 78.8928 67.4287 78.3985C67.4287 77.8988 67.5088 77.4534 67.6743 77.0568C67.8345 76.6603 68.0587 76.3453 68.347 76.1225C68.63 75.8944 68.9503 75.7803 69.3027 75.7749C69.591 75.7749 69.8579 75.8401 70.0982 75.9813C70.3385 76.1225 70.5467 76.3344 70.7175 76.6114C70.5413 76.8613 70.4559 76.9808 70.2797 77.2307C70.0235 76.8341 69.7138 76.6386 69.3561 76.644C69.1265 76.644 68.9183 76.7255 68.7368 76.8776C68.5552 77.0297 68.4111 77.2361 68.3096 77.5023C68.2082 77.7684 68.1548 78.0672 68.1602 78.4039C68.1602 78.7353 68.2135 79.034 68.3203 79.3002C68.4271 79.5609 68.5766 79.7674 68.7635 79.914C68.9503 80.0607 69.1639 80.1367 69.4041 80.1313C69.7779 80.1313 70.0875 79.9195 70.3278 79.5175C70.5146 79.7565 70.6107 79.876 70.8029 80.115C70.6428 80.3975 70.4399 80.6202 70.1943 80.7723C69.9487 80.9244 69.6764 81.0058 69.3721 81.0113C69.009 81.0113 68.678 80.9081 68.3844 80.6854L68.3737 80.6745Z" fill="#231F20"/>
<path d="M75.9283 80.6852C75.64 80.7015 75.4959 80.7123 75.2076 80.7232C75.1649 79.8649 75.1435 79.4413 75.1008 78.583C74.4014 78.621 74.049 78.6373 73.3496 78.6645C73.3816 79.5227 73.3977 79.9519 73.435 80.8047C73.1467 80.8155 73.0026 80.821 72.7143 80.8318C72.6449 78.8057 72.6075 77.79 72.5381 75.7639C72.8157 75.753 72.9599 75.7476 73.2375 75.7367C73.2695 76.5623 73.2855 76.9752 73.3176 77.8008C74.017 77.7737 74.364 77.7574 75.0581 77.7193C75.0154 76.8937 74.994 76.4809 74.9513 75.6552C75.2289 75.6389 75.3731 75.6335 75.6507 75.6172C75.7628 77.6433 75.8216 78.6536 75.9337 80.6797L75.9283 80.6852Z" fill="#231F20"/>
<path d="M81.3312 80.0224C81.0162 79.8268 80.76 79.5389 80.5624 79.1533C80.3649 78.773 80.2421 78.333 80.1994 77.8387C80.1567 77.3444 80.1994 76.8882 80.3275 76.4808C80.4556 76.0679 80.6532 75.7366 80.9201 75.4867C81.1871 75.2369 81.4914 75.0956 81.8438 75.0576C82.1321 75.0304 82.4044 75.0739 82.6553 75.1934C82.9062 75.3129 83.1305 75.503 83.3227 75.7638C83.1678 76.0245 83.0931 76.1548 82.9329 76.4156C82.6446 76.0462 82.3189 75.8778 81.9612 75.9104C81.7317 75.9321 81.5341 76.0299 81.3633 76.1929C81.1924 76.3613 81.0696 76.5785 80.9895 76.8501C80.9095 77.1217 80.8828 77.4259 80.9148 77.7627C80.9468 78.094 81.0216 78.3874 81.1497 78.6372C81.2778 78.8871 81.4434 79.0826 81.6462 79.213C81.8491 79.3434 82.068 79.3977 82.3029 79.376C82.6713 79.3379 82.965 79.1044 83.1732 78.6807C83.3814 78.9034 83.4882 79.012 83.6964 79.2347C83.5629 79.5335 83.3814 79.7671 83.1465 79.9409C82.9116 80.1147 82.6446 80.2179 82.3456 80.2505C81.9826 80.2885 81.6462 80.2071 81.3312 80.0115V80.0224Z" fill="#231F20"/>
<path d="M86.1257 78.5883C86.0456 79.0609 86.0029 79.2999 85.9228 79.7724C85.6292 79.8105 85.4797 79.8268 85.186 79.8648C85.5918 77.7735 85.784 76.7251 86.1471 74.6338C86.4193 74.5958 86.5582 74.5795 86.8304 74.5415C87.7167 76.4644 88.1705 77.4259 89.0995 79.3379C88.8005 79.3813 88.651 79.4031 88.3467 79.4465C88.1492 79.012 88.0477 78.7893 87.8502 78.3547C87.1615 78.4525 86.8144 78.4959 86.1257 78.5883ZM86.6222 75.5899C86.4834 76.4698 86.4087 76.9044 86.2592 77.7844C86.7664 77.7192 87.0173 77.6866 87.5192 77.616C87.1561 76.8066 86.9746 76.3992 86.6222 75.5899Z" fill="#231F20"/>
<path d="M91.075 76.2529C91.7424 76.1442 92.0734 76.0845 92.7408 75.9704C92.7942 76.2909 92.8209 76.4539 92.8796 76.7743C92.2122 76.8939 91.8759 76.9482 91.2085 77.0622C91.3313 77.8227 91.39 78.2029 91.5128 78.9634C91.2298 79.0123 91.0857 79.034 90.8027 79.0775C90.4931 77.0731 90.3382 76.0736 90.0286 74.0693C91.043 73.9063 91.5555 73.8194 92.5699 73.6401C92.6233 73.9606 92.6553 74.1236 92.7087 74.4441C91.9666 74.5744 91.5929 74.6396 90.8454 74.7645C90.9415 75.3621 90.9896 75.6554 91.0803 76.2529H91.075Z" fill="#231F20"/>
<path d="M98.0318 77.741C96.9586 77.9692 96.4247 78.0724 95.3463 78.2788C94.9779 76.2853 94.791 75.2912 94.4226 73.2977C95.437 73.1022 95.9389 73.0044 96.9533 72.7871C97.0174 73.1076 97.0494 73.2706 97.1135 73.591C96.3713 73.7486 96.003 73.8246 95.2608 73.9658C95.3569 74.471 95.405 74.7209 95.5011 75.226C96.1631 75.0957 96.4941 75.0305 97.1562 74.8893C97.2202 75.1989 97.2523 75.3564 97.311 75.6715C96.6436 75.8127 96.3126 75.8779 95.6452 76.0082C95.7467 76.5351 95.7947 76.8013 95.8962 77.3336C96.681 77.1815 97.0761 77.1 97.8609 76.9317C97.925 77.2576 97.957 77.4151 98.0264 77.741H98.0318Z" fill="#231F20"/>
</g>
<defs>
<clipPath id="clip0_116_514">
<rect width="109.406" height="72" fill="white" transform="translate(14.3484 9)"/>
</clipPath>
</defs>
</svg>
