<svg width="130" height="130" viewBox="0 0 130 130" fill="none" xmlns="http://www.w3.org/2000/svg">
<g opacity="0.2">
<path d="M63.375 50.375C63.375 55.5467 61.3205 60.5066 57.6636 64.1636C54.0066 67.8205 49.0467 69.875 43.875 69.875C38.7033 69.875 33.7434 67.8205 30.0864 64.1636C26.4295 60.5066 24.375 55.5467 24.375 50.375C24.375 45.2033 26.4295 40.2434 30.0864 36.5864C33.7434 32.9295 38.7033 30.875 43.875 30.875C49.0467 30.875 54.0066 32.9295 57.6636 36.5864C61.3205 40.2434 63.375 45.2033 63.375 50.375Z" fill="black"/>
<path fill-rule="evenodd" clip-rule="evenodd" d="M43.875 56.875C45.5989 56.875 47.2522 56.1902 48.4712 54.9712C49.6902 53.7522 50.375 52.0989 50.375 50.375C50.375 48.6511 49.6902 46.9978 48.4712 45.7788C47.2522 44.5598 45.5989 43.875 43.875 43.875C42.1511 43.875 40.4978 44.5598 39.2788 45.7788C38.0598 46.9978 37.375 48.6511 37.375 50.375C37.375 52.0989 38.0598 53.7522 39.2788 54.9712C40.4978 56.1902 42.1511 56.875 43.875 56.875ZM43.875 69.875C46.4358 69.875 48.9715 69.3706 51.3373 68.3907C53.7032 67.4107 55.8528 65.9743 57.6636 64.1636C59.4743 62.3528 60.9107 60.2032 61.8907 57.8373C62.8706 55.4715 63.375 52.9358 63.375 50.375C63.375 47.8142 62.8706 45.2785 61.8907 42.9127C60.9107 40.5468 59.4743 38.3972 57.6636 36.5864C55.8528 34.7757 53.7032 33.3393 51.3373 32.3594C48.9715 31.3794 46.4358 30.875 43.875 30.875C38.7033 30.875 33.7434 32.9295 30.0864 36.5864C26.4295 40.2434 24.375 45.2033 24.375 50.375C24.375 55.5467 26.4295 60.5066 30.0864 64.1636C33.7434 67.8205 38.7033 69.875 43.875 69.875Z" fill="black"/>
<path fill-rule="evenodd" clip-rule="evenodd" d="M44.2 74.75C41.6141 74.75 39.1342 75.7772 37.3057 77.6057C35.4772 79.4342 34.45 81.9141 34.45 84.5V94.25C34.45 95.9739 33.7652 97.6272 32.5462 98.8462C31.3272 100.065 29.6739 100.75 27.95 100.75C26.2261 100.75 24.5728 100.065 23.3538 98.8462C22.1348 97.6272 21.45 95.9739 21.45 94.25V84.5C21.45 78.4663 23.8469 72.6798 28.1133 68.4133C32.3798 64.1469 38.1663 61.75 44.2 61.75C50.2337 61.75 56.0202 64.1469 60.2867 68.4133C64.5531 72.6798 66.95 78.4663 66.95 84.5V87.75C66.95 89.4739 66.2652 91.1272 65.0462 92.3462C63.8272 93.5652 62.1739 94.25 60.45 94.25C58.7261 94.25 57.0728 93.5652 55.8538 92.3462C54.6348 91.1272 53.95 89.4739 53.95 87.75V84.5C53.95 81.9141 52.9228 79.4342 51.0943 77.6057C49.2658 75.7772 46.7859 74.75 44.2 74.75Z" fill="black"/>
<path d="M82.875 50.375C82.875 55.5467 84.9295 60.5066 88.5864 64.1636C92.2434 67.8205 97.2033 69.875 102.375 69.875C107.547 69.875 112.507 67.8205 116.164 64.1636C119.821 60.5066 121.875 55.5467 121.875 50.375C121.875 45.2033 119.821 40.2434 116.164 36.5864C112.507 32.9295 107.547 30.875 102.375 30.875C97.2033 30.875 92.2434 32.9295 88.5864 36.5864C84.9295 40.2434 82.875 45.2033 82.875 50.375Z" fill="black"/>
<path fill-rule="evenodd" clip-rule="evenodd" d="M102.375 56.875C100.651 56.875 98.9978 56.1902 97.7788 54.9712C96.5598 53.7522 95.875 52.0989 95.875 50.375C95.875 48.6511 96.5598 46.9978 97.7788 45.7788C98.9978 44.5598 100.651 43.875 102.375 43.875C104.099 43.875 105.752 44.5598 106.971 45.7788C108.19 46.9978 108.875 48.6511 108.875 50.375C108.875 52.0989 108.19 53.7522 106.971 54.9712C105.752 56.1902 104.099 56.875 102.375 56.875ZM102.375 69.875C99.8142 69.875 97.2785 69.3706 94.9127 68.3907C92.5468 67.4107 90.3972 65.9743 88.5864 64.1636C86.7757 62.3528 85.3393 60.2032 84.3593 57.8373C83.3794 55.4715 82.875 52.9358 82.875 50.375C82.875 47.8142 83.3794 45.2785 84.3593 42.9127C85.3393 40.5468 86.7757 38.3972 88.5864 36.5864C90.3972 34.7757 92.5468 33.3393 94.9127 32.3594C97.2785 31.3794 99.8142 30.875 102.375 30.875C107.547 30.875 112.507 32.9295 116.164 36.5864C119.821 40.2434 121.875 45.2033 121.875 50.375C121.875 55.5467 119.821 60.5066 116.164 64.1636C112.507 67.8205 107.547 69.875 102.375 69.875Z" fill="black"/>
<path fill-rule="evenodd" clip-rule="evenodd" d="M102.05 74.75C104.636 74.75 107.116 75.7772 108.944 77.6057C110.773 79.4342 111.8 81.9141 111.8 84.5V94.25C111.8 95.9739 112.485 97.6272 113.704 98.8462C114.923 100.065 116.576 100.75 118.3 100.75C120.024 100.75 121.677 100.065 122.896 98.8462C124.115 97.6272 124.8 95.9739 124.8 94.25V84.5C124.8 78.4663 122.403 72.6798 118.137 68.4133C113.87 64.1469 108.084 61.75 102.05 61.75C96.0163 61.75 90.2298 64.1469 85.9633 68.4133C81.6969 72.6798 79.3 78.4663 79.3 84.5V87.75C79.3 89.4739 79.9848 91.1272 81.2038 92.3462C82.4228 93.5652 84.0761 94.25 85.8 94.25C87.5239 94.25 89.1772 93.5652 90.3962 92.3462C91.6152 91.1272 92.3 89.4739 92.3 87.75V84.5C92.3 81.9141 93.3272 79.4342 95.1557 77.6057C96.9842 75.7772 99.4641 74.75 102.05 74.75Z" fill="black"/>
<path fill-rule="evenodd" clip-rule="evenodd" d="M73.45 92.625C70.8641 92.625 68.3842 93.6522 66.5557 95.4807C64.7272 97.3092 63.7 99.7891 63.7 102.375V112.125C63.7 113.849 63.0152 115.502 61.7962 116.721C60.5772 117.94 58.9239 118.625 57.2 118.625C55.4761 118.625 53.8228 117.94 52.6038 116.721C51.3848 115.502 50.7 113.849 50.7 112.125V102.375C50.7 96.3413 53.0969 90.5548 57.3633 86.2883C61.6298 82.0219 67.4163 79.625 73.45 79.625C79.4837 79.625 85.2702 82.0219 89.5367 86.2883C93.8031 90.5548 96.2 96.3413 96.2 102.375V112.125C96.2 113.849 95.5152 115.502 94.2962 116.721C93.0772 117.94 91.4239 118.625 89.7 118.625C87.9761 118.625 86.3228 117.94 85.1038 116.721C83.8848 115.502 83.2 113.849 83.2 112.125V102.375C83.2 99.7891 82.1728 97.3092 80.3443 95.4807C78.5158 93.6522 76.0359 92.625 73.45 92.625Z" fill="black"/>
<path d="M92.625 68.25C92.625 73.4217 90.5705 78.3816 86.9136 82.0386C83.2566 85.6955 78.2967 87.75 73.125 87.75C67.9533 87.75 62.9934 85.6955 59.3364 82.0386C55.6795 78.3816 53.625 73.4217 53.625 68.25C53.625 63.0783 55.6795 58.1184 59.3364 54.4614C62.9934 50.8045 67.9533 48.75 73.125 48.75C78.2967 48.75 83.2566 50.8045 86.9136 54.4614C90.5705 58.1184 92.625 63.0783 92.625 68.25Z" fill="black"/>
<path fill-rule="evenodd" clip-rule="evenodd" d="M73.125 74.75C74.8489 74.75 76.5022 74.0652 77.7212 72.8462C78.9402 71.6272 79.625 69.9739 79.625 68.25C79.625 66.5261 78.9402 64.8728 77.7212 63.6538C76.5022 62.4348 74.8489 61.75 73.125 61.75C71.4011 61.75 69.7478 62.4348 68.5288 63.6538C67.3098 64.8728 66.625 66.5261 66.625 68.25C66.625 69.9739 67.3098 71.6272 68.5288 72.8462C69.7478 74.0652 71.4011 74.75 73.125 74.75ZM73.125 87.75C78.2967 87.75 83.2566 85.6955 86.9136 82.0386C90.5705 78.3816 92.625 73.4217 92.625 68.25C92.625 63.0783 90.5705 58.1184 86.9136 54.4614C83.2566 50.8045 78.2967 48.75 73.125 48.75C67.9533 48.75 62.9934 50.8045 59.3364 54.4614C55.6795 58.1184 53.625 63.0783 53.625 68.25C53.625 73.4217 55.6795 78.3816 59.3364 82.0386C62.9934 85.6955 67.9533 87.75 73.125 87.75Z" fill="black"/>
<path d="M27.625 74.75H60.125V100.75H27.625V74.75ZM86.125 74.75H118.625V100.75H86.125V74.75Z" fill="black"/>
<path d="M60.125 87.75H86.125L89.375 118.625H56.875L60.125 87.75Z" fill="black"/>
</g>
<path fill-rule="evenodd" clip-rule="evenodd" d="M32.5 58.5C35.9478 58.5 39.2544 57.1304 41.6924 54.6924C44.1304 52.2544 45.5 48.9478 45.5 45.5C45.5 42.0522 44.1304 38.7456 41.6924 36.3076C39.2544 33.8696 35.9478 32.5 32.5 32.5C29.0522 32.5 25.7456 33.8696 23.3076 36.3076C20.8696 38.7456 19.5 42.0522 19.5 45.5C19.5 48.9478 20.8696 52.2544 23.3076 54.6924C25.7456 57.1304 29.0522 58.5 32.5 58.5ZM32.5 65C35.0608 65 37.5965 64.4956 39.9623 63.5157C42.3282 62.5357 44.4778 61.0993 46.2886 59.2886C48.0993 57.4778 49.5357 55.3282 50.5157 52.9623C51.4956 50.5965 52 48.0608 52 45.5C52 42.9392 51.4956 40.4035 50.5157 38.0377C49.5357 35.6718 48.0993 33.5222 46.2886 31.7114C44.4778 29.9007 42.3282 28.4643 39.9623 27.4844C37.5965 26.5044 35.0608 26 32.5 26C27.3283 26 22.3684 28.0545 18.7114 31.7114C15.0545 35.3684 13 40.3283 13 45.5C13 50.6717 15.0545 55.6316 18.7114 59.2886C22.3684 62.9455 27.3283 65 32.5 65Z" fill="black"/>
<path fill-rule="evenodd" clip-rule="evenodd" d="M25.051 57.8247C25.3537 58.1266 25.5938 58.4853 25.7576 58.8801C25.9215 59.275 26.0058 59.6982 26.0058 60.1257C26.0058 60.5532 25.9215 60.9765 25.7576 61.3713C25.5938 61.7662 25.3537 62.1248 25.051 62.4267L22.854 64.6172C18.626 68.8464 16.2506 74.5816 16.25 80.5617V92.6257C16.25 93.4877 15.9076 94.3143 15.2981 94.9238C14.6886 95.5333 13.862 95.8757 13 95.8757C12.138 95.8757 11.3114 95.5333 10.7019 94.9238C10.0924 94.3143 9.75 93.4877 9.75 92.6257V80.5617C9.75092 72.8578 12.8114 65.4696 18.2585 60.0217L20.449 57.8247C20.7509 57.5221 21.1095 57.2819 21.5044 57.1181C21.8992 56.9543 22.3225 56.8699 22.75 56.8699C23.1775 56.8699 23.6008 56.9543 23.9956 57.1181C24.3905 57.2819 24.7491 57.5221 25.051 57.8247ZM101.699 55.8747C101.396 56.1766 101.156 56.5353 100.992 56.9301C100.829 57.325 100.744 57.7482 100.744 58.1757C100.744 58.6032 100.829 59.0265 100.992 59.4214C101.156 59.8162 101.396 60.1748 101.699 60.4767L103.896 62.6672C108.124 66.8964 110.499 72.6316 110.5 78.6117V92.6257C110.5 93.4877 110.842 94.3143 111.452 94.9238C112.061 95.5333 112.888 95.8757 113.75 95.8757C114.612 95.8757 115.439 95.5333 116.048 94.9238C116.658 94.3143 117 93.4877 117 92.6257V78.6117C116.999 70.9078 113.939 63.5196 108.491 58.0717L106.301 55.8747C105.999 55.5721 105.64 55.3319 105.246 55.1681C104.851 55.0043 104.427 54.9199 104 54.9199C103.573 54.9199 103.149 55.0043 102.754 55.1681C102.36 55.3319 102.001 55.5721 101.699 55.8747Z" fill="black"/>
<path fill-rule="evenodd" clip-rule="evenodd" d="M91 58.5C87.5522 58.5 84.2456 57.1304 81.8076 54.6924C79.3696 52.2544 78 48.9478 78 45.5C78 42.0522 79.3696 38.7456 81.8076 36.3076C84.2456 33.8696 87.5522 32.5 91 32.5C94.4478 32.5 97.7544 33.8696 100.192 36.3076C102.63 38.7456 104 42.0522 104 45.5C104 48.9478 102.63 52.2544 100.192 54.6924C97.7544 57.1304 94.4478 58.5 91 58.5ZM91 65C88.4392 65 85.9035 64.4956 83.5377 63.5156C81.1718 62.5357 79.0222 61.0993 77.2114 59.2886C75.4007 57.4778 73.9643 55.3282 72.9843 52.9623C72.0044 50.5965 71.5 48.0608 71.5 45.5C71.5 42.9392 72.0044 40.4035 72.9843 38.0377C73.9643 35.6718 75.4007 33.5222 77.2114 31.7114C79.0222 29.9007 81.1718 28.4643 83.5377 27.4844C85.9035 26.5044 88.4392 26 91 26C96.1717 26 101.132 28.0545 104.789 31.7114C108.446 35.3684 110.5 40.3283 110.5 45.5C110.5 50.6717 108.446 55.6316 104.789 59.2886C101.132 62.9455 96.1717 65 91 65ZM61.75 86.125C57.4402 86.125 53.307 87.837 50.2595 90.8845C47.212 93.932 45.5 98.0652 45.5 102.375V110.825C45.5 111.687 45.1576 112.514 44.5481 113.123C43.9386 113.733 43.112 114.075 42.25 114.075C41.388 114.075 40.5614 113.733 39.9519 113.123C39.3424 112.514 39 111.687 39 110.825V102.375C39 96.3413 41.3969 90.5548 45.6633 86.2883C49.9298 82.0219 55.7163 79.625 61.75 79.625C67.7837 79.625 73.5702 82.0219 77.8367 86.2883C82.1031 90.5548 84.5 96.3413 84.5 102.375V110.825C84.5 111.687 84.1576 112.514 83.5481 113.123C82.9386 113.733 82.112 114.075 81.25 114.075C80.388 114.075 79.5614 113.733 78.9519 113.123C78.3424 112.514 78 111.687 78 110.825V102.375C78 100.241 77.5797 98.1279 76.763 96.1564C75.9464 94.1848 74.7494 92.3935 73.2405 90.8845C71.7315 89.3756 69.9401 88.1786 67.9686 87.362C65.9971 86.5453 63.884 86.125 61.75 86.125Z" fill="black"/>
<path fill-rule="evenodd" clip-rule="evenodd" d="M61.75 76.375C65.1978 76.375 68.5044 75.0054 70.9424 72.5674C73.3804 70.1294 74.75 66.8228 74.75 63.375C74.75 59.9272 73.3804 56.6206 70.9424 54.1826C68.5044 51.7446 65.1978 50.375 61.75 50.375C58.3022 50.375 54.9956 51.7446 52.5576 54.1826C50.1196 56.6206 48.75 59.9272 48.75 63.375C48.75 66.8228 50.1196 70.1294 52.5576 72.5674C54.9956 75.0054 58.3022 76.375 61.75 76.375ZM61.75 82.875C66.9217 82.875 71.8816 80.8205 75.5386 77.1636C79.1955 73.5066 81.25 68.5467 81.25 63.375C81.25 58.2033 79.1955 53.2434 75.5386 49.5864C71.8816 45.9295 66.9217 43.875 61.75 43.875C56.5783 43.875 51.6184 45.9295 47.9614 49.5864C44.3045 53.2434 42.25 58.2033 42.25 63.375C42.25 68.5467 44.3045 73.5066 47.9614 77.1636C51.6184 80.8205 56.5783 82.875 61.75 82.875Z" fill="black"/>
</svg>
