<svg width="25" height="24" viewBox="0 0 25 24" fill="none" xmlns="http://www.w3.org/2000/svg">
<path d="M23.8564 6.50346C23.5838 5.51804 22.7805 4.74196 21.7607 4.47858C19.9122 4 12.4998 4 12.4998 4C12.4998 4 5.08749 4 3.23892 4.47858C2.21909 4.742 1.41587 5.51804 1.14326 6.50346C0.647949 8.28958 0.647949 12.0162 0.647949 12.0162C0.647949 12.0162 0.647949 15.7427 1.14326 17.5289C1.41587 18.5143 2.21909 19.258 3.23892 19.5214C5.08749 20 12.4998 20 12.4998 20C12.4998 20 19.9121 20 21.7607 19.5214C22.7805 19.258 23.5838 18.5143 23.8564 17.5289C24.3517 15.7427 24.3517 12.0162 24.3517 12.0162C24.3517 12.0162 24.3517 8.28958 23.8564 6.50346ZM10.0756 15.3996V8.63271L16.2708 12.0163L10.0756 15.3996Z" fill="white"/>
</svg>
