<svg viewBox="0 0 68 16" fill="none" xmlns="http://www.w3.org/2000/svg">
<g clip-path="url(#clip0_550_3132)">
<path fill-rule="evenodd" clip-rule="evenodd" d="M5.863 7.865C7.499 7.865 8.455 6.857 8.455 5.543V5.499C8.455 3.987 7.435 3.177 5.8 3.177H3.272V7.865H5.863ZM0 1.818C0 0.876 0.722 0.131 1.636 0.131H6.076C9.624 0.131 11.769 2.301 11.769 5.433V5.477C11.769 9.027 9.093 10.867 5.757 10.867H3.272V14.043C3.272 14.985 2.549 15.73 1.636 15.73C0.722 15.73 0 14.985 0 14.043V1.818ZM20.447 9.18L18.386 4.119L16.326 9.179H20.446L20.447 9.18ZM11.247 13.43L16.431 1.358C16.793 0.526 17.451 0.022 18.344 0.022H18.534C19.427 0.022 20.064 0.526 20.425 1.358L25.61 13.43C25.716 13.67 25.78 13.89 25.78 14.109C25.78 15.007 25.1 15.73 24.23 15.73C23.464 15.73 22.955 15.27 22.657 14.569L21.659 12.159H15.115L14.075 14.679C13.798 15.336 13.245 15.73 12.566 15.73C11.716 15.73 11.058 15.029 11.058 14.153C11.058 13.912 11.143 13.671 11.248 13.43H11.247ZM29.24 9.683L24.438 2.958C24.1784 2.60963 24.0369 2.18745 24.034 1.753C24.0336 1.53865 24.0757 1.32636 24.158 1.12841C24.2402 0.930466 24.3609 0.750808 24.5131 0.599848C24.6652 0.448887 24.8458 0.329626 25.0444 0.248974C25.243 0.168322 25.4557 0.127883 25.67 0.13C26.414 0.13 26.881 0.547 27.285 1.16L30.896 6.528L34.571 1.116C34.975 0.504 35.464 0.11 36.144 0.11C37.142 0.11 37.737 0.832 37.737 1.753C37.737 2.213 37.525 2.629 37.312 2.936L32.511 9.618V14.043C32.511 14.985 31.789 15.73 30.875 15.73C29.961 15.73 29.239 14.985 29.239 14.043L29.24 9.683ZM37.836 7.975V7.93C37.836 3.57 41.023 0 45.591 0C47.821 0 49.329 0.613 50.561 1.556C50.901 1.818 51.199 2.3 51.199 2.892C51.202 3.10625 51.1626 3.31897 51.0828 3.51785C51.0031 3.71674 50.8847 3.89782 50.7345 4.05063C50.5843 4.20344 50.4052 4.32494 50.2078 4.40808C50.0103 4.49122 49.7983 4.53436 49.584 4.535C49.138 4.535 48.841 4.36 48.607 4.206C47.694 3.506 46.737 3.111 45.569 3.111C43.062 3.111 41.257 5.258 41.257 7.887V7.931C41.257 10.56 43.02 12.751 45.569 12.751C46.95 12.751 47.864 12.312 48.799 11.546C49.053 11.326 49.393 11.173 49.776 11.173C50.604 11.173 51.306 11.874 51.306 12.729C51.306 13.254 51.05 13.671 50.753 13.934C49.415 15.138 47.843 15.862 45.463 15.862C41.087 15.862 37.836 12.378 37.836 7.975ZM52.158 7.975V7.93C52.158 3.57 55.494 0 60.082 0C64.672 0 67.964 3.527 67.964 7.887V7.931C67.964 12.291 64.629 15.861 60.04 15.861C55.451 15.861 52.158 12.334 52.158 7.975ZM64.544 7.975V7.93C64.544 5.3 62.674 3.11 60.04 3.11C57.406 3.11 55.579 5.257 55.579 7.886V7.93C55.579 10.559 57.449 12.75 60.082 12.75C62.717 12.75 64.544 10.604 64.544 7.975Z" fill="#FA2828"/>
</g>
<defs>
<clipPath id="clip0_550_3132">
<rect width="68" height="16" fill="white"/>
</clipPath>
</defs>
</svg>
