<?xml version="1.0" encoding="utf-8"?>
<!-- Generator: Adobe Illustrator 27.0.0, SVG Export Plug-In . SVG Version: 6.00 Build 0)  -->
<svg version="1.1" id="Layer_1" xmlns="http://www.w3.org/2000/svg" xmlns:xlink="http://www.w3.org/1999/xlink" x="0px" y="0px"
	 viewBox="0 0 595.28 841.89" style="enable-background:new 0 0 595.28 841.89;" xml:space="preserve">
<style type="text/css">
	.st0{fill:#202632;}
	.st1{fill:#004EFE;}
	.st2{fill:#01AEFE;}
	.st3{fill:#017EFE;}
	.st4{fill:#0178FE;}
	.st5{fill:#0085FE;}
	.st6{fill:#0072FE;}
	.st7{fill:#004DEE;}
	.st8{fill:#0053FE;}
	.st9{fill:#006EFE;}
	.st10{fill:#008AFE;}
	.st11{fill:#0096FE;}
	.st12{fill:#0058FE;}
	.st13{fill:#009DFE;}
	.st14{fill:#0160FE;}
	.st15{fill:#01A2FE;}
	.st16{fill:#02A8FE;}
	.st17{fill:#0067FE;}
	.st18{fill:#006DFE;}
	.st19{fill:#0260E4;}
	.st20{fill:#0176FE;}
	.st21{fill:#027FFE;}
	.st22{fill:#0289FE;}
	.st23{fill:#0295FE;}
	.st24{fill:#0253FD;}
	.st25{fill:#045EF6;}
	.st26{fill:#FFFFFF;}
	.st27{fill:#0049FE;}
	.st28{fill:#0049F7;}
	.st29{fill:#0045EC;}
	.st30{fill:#003FF6;}
	.st31{fill:#004FE8;}
	.st32{fill:#0090FE;}
	.st33{fill:#0043FE;}
	.st34{fill:#003CEE;}
</style>
<g>
	<path class="st0" d="M265.36,442.29c3.07,0.02,5.65,0.74,7.88,2.49c2.71,2.13,4.11,4.95,4.26,8.39c0.12,2.64-0.52,5.07-2.08,7.22
		c-2.03,2.79-4.85,4.26-8.23,4.65c-2.33,0.27-4.64,0.04-6.79-0.97c-4.11-1.92-6.37-5.15-6.64-9.7c-0.21-3.47,0.89-6.48,3.43-8.89
		c1.92-1.82,4.24-2.81,6.86-3.09C264.57,442.33,265.1,442.31,265.36,442.29z"/>
	<path class="st0" d="M309.85,465.11c-1.71,0.03-3.39-0.19-5.01-0.77c-1.12-0.4-2.14-0.96-3.01-1.79c-0.75-0.71-1.29-1.56-1.63-2.53
		c-0.15-0.44-0.07-0.63,0.34-0.74c1.56-0.43,3.13-0.84,4.7-1.27c0.34-0.09,0.52,0.04,0.64,0.36c0.48,1.21,1.46,1.79,2.67,2.08
		c1.17,0.28,2.33,0.31,3.49-0.02c0.55-0.16,1.07-0.39,1.49-0.79c0.84-0.81,0.78-1.8-0.18-2.47c-0.47-0.33-1-0.53-1.56-0.66
		c-1.47-0.32-2.93-0.64-4.4-0.95c-1.03-0.22-2.05-0.5-3.01-0.94c-0.55-0.26-1.08-0.56-1.57-0.93c-1.96-1.5-2.56-3.48-2.03-5.83
		c0.36-1.62,1.29-2.86,2.63-3.82c1.18-0.84,2.51-1.33,3.93-1.56c2.23-0.35,4.45-0.27,6.62,0.43c1.05,0.34,2.02,0.84,2.89,1.52
		c1.05,0.82,1.81,1.86,2.28,3.1c0.15,0.41,0.06,0.57-0.39,0.69c-1.45,0.4-2.89,0.79-4.34,1.18c-0.26,0.07-0.46,0.04-0.57-0.27
		c-0.62-1.6-1.92-2.22-3.51-2.39c-0.85-0.09-1.7-0.07-2.52,0.26c-0.54,0.22-1,0.54-1.27,1.07c-0.41,0.78-0.23,1.53,0.5,2.03
		c0.44,0.3,0.94,0.47,1.46,0.59c1.74,0.39,3.48,0.8,5.22,1.2c1.32,0.3,2.56,0.77,3.67,1.56c1.17,0.84,2.02,1.93,2.24,3.35
		c0.39,2.41-0.25,4.5-2.17,6.12c-0.95,0.8-2.05,1.29-3.23,1.64C312.78,464.99,311.33,465.13,309.85,465.11z"/>
	<path class="st0" d="M279.01,459.5c0.23-0.11,0.37-0.19,0.52-0.23c1.45-0.39,2.9-0.78,4.35-1.17c0.67-0.18,0.69-0.18,1,0.45
		c0.4,0.81,1.02,1.36,1.85,1.67c1.45,0.54,2.93,0.62,4.42,0.17c0.59-0.17,1.13-0.47,1.52-0.96c0.59-0.74,0.51-1.55-0.23-2.13
		c-0.52-0.41-1.12-0.64-1.77-0.78c-1.47-0.32-2.93-0.64-4.4-0.95c-1.04-0.22-2.05-0.51-3.01-0.96c-0.67-0.31-1.29-0.69-1.84-1.17
		c-1.84-1.59-2.23-3.6-1.62-5.86c0.43-1.6,1.44-2.8,2.81-3.7c1.14-0.75,2.4-1.2,3.74-1.4c2.19-0.32,4.38-0.26,6.51,0.43
		c1.41,0.46,2.68,1.16,3.71,2.24c0.68,0.71,1.2,1.53,1.53,2.47c0.12,0.33,0.06,0.49-0.22,0.57c-1.53,0.42-3.05,0.83-4.58,1.24
		c-0.21,0.06-0.4,0.03-0.48-0.22c-0.85-2.48-4.03-2.8-5.78-2.29c-0.51,0.15-0.98,0.4-1.33,0.82c-0.61,0.73-0.67,1.88,0.42,2.48
		c0.43,0.24,0.88,0.4,1.36,0.5c1.7,0.39,3.4,0.79,5.1,1.17c0.99,0.23,1.96,0.54,2.85,1.03c3.85,2.09,4.38,7.02,1.07,9.91
		c-1.13,0.98-2.47,1.57-3.91,1.89c-2.7,0.58-5.4,0.57-8.08-0.14c-1.07-0.29-2.06-0.73-2.97-1.38
		C280.28,462.29,279.39,461.12,279.01,459.5z"/>
	<path class="st0" d="M331.89,461.72c-0.24,0.31-0.14,0.68-0.14,1.02c-0.01,2.48,0,4.95-0.01,7.43c0,1.44,0.12,1.34-1.28,1.34
		c-0.57,0-1.14,0-1.71-0.01c-0.28,0-0.46-0.13-0.47-0.43c-0.01-0.28-0.01-0.57-0.01-0.85c0-8.69,0-17.37,0-26.06
		c0-0.24-0.01-0.49,0-0.73c0.02-0.47,0.09-0.55,0.59-0.55c0.73-0.01,1.46-0.01,2.19,0c0.38,0.01,0.48,0.12,0.49,0.53
		c0.01,0.65,0,1.3,0.01,1.95c0,0.18-0.07,0.4,0.15,0.54c0.3-0.06,0.43-0.33,0.62-0.52c2.11-2.01,4.65-2.92,7.54-2.84
		c5.57,0.15,9.21,4.17,10.07,8.63c0.49,2.54,0.34,5.03-0.75,7.38c-1.86,4.02-5.04,6.15-9.48,6.28c-2.81,0.08-5.26-0.85-7.32-2.78
		C332.26,461.92,332.15,461.73,331.89,461.72z"/>
	<path class="st0" d="M244.79,435.61c0,2.09,0,4,0,5.9c0,0.32,0,0.65,0.02,0.97c0.01,0.18,0.13,0.3,0.31,0.31
		c0.32,0.02,0.65,0.03,0.97,0.03c1.75,0,3.49,0,5.24,0.01c0.52,0,0.56,0.05,0.57,0.56c0.01,1.22,0.01,2.44,0,3.65
		c0,0.41-0.08,0.48-0.51,0.48c-1.75,0.01-3.49,0-5.24,0.01c-0.32,0-0.65,0-0.97,0.01c-0.24,0.01-0.37,0.13-0.38,0.37
		c-0.01,0.2-0.01,0.41-0.01,0.61c0,2.56,0,5.11,0,7.67c0,0.49,0.02,0.97,0.15,1.45c0.41,1.56,1.42,2.41,3.03,2.52
		c1.08,0.07,2.1-0.14,3.04-0.7c0.3-0.18,0.43-0.14,0.57,0.15c0.57,1.17,1.13,2.34,1.69,3.51c0.13,0.26,0.04,0.46-0.2,0.62
		c-0.92,0.63-1.94,1.02-3.02,1.23c-1.65,0.32-3.31,0.3-4.96-0.06c-3.16-0.68-5.5-2.88-5.93-6.83c-0.07-0.64-0.08-1.3-0.08-1.94
		c-0.01-2.39,0-4.79,0-7.18c0-0.32,0-0.65-0.01-0.97c-0.01-0.29-0.15-0.44-0.45-0.44c-0.49,0-0.98,0-1.46,0c-0.77,0-1.54,0-2.32,0
		c-0.28,0-0.47-0.11-0.47-0.42c0-1.26-0.01-2.52,0-3.77c0-0.38,0.12-0.49,0.53-0.5c0.98-0.01,1.95-0.01,2.93-0.01
		c1.27,0,1.26,0.13,1.25-1.25c-0.01-1.3,0-2.6,0-3.9c0-0.29,0.02-0.55,0.4-0.65C241.2,436.58,242.92,436.12,244.79,435.61z"/>
	<path class="st0" d="M370.84,445.64c0-0.82,0-1.59,0-2.36c0-0.29,0.13-0.45,0.43-0.45c0.85,0,1.71,0,2.56,0
		c0.28,0,0.45,0.14,0.45,0.44c0,0.2,0.01,0.41,0.01,0.61c0,6.53,0,13.06,0,19.59c0,1.11,0.03,1.08-1.05,1.07
		c-0.57,0-1.14,0.01-1.71-0.01c-0.38-0.01-0.48-0.11-0.49-0.53c-0.02-0.61,0-1.22-0.01-1.82c0-0.24,0.06-0.49-0.12-0.7
		c-0.3-0.03-0.4,0.23-0.56,0.39c-3.06,2.87-6.65,3.65-10.6,2.43c-3.96-1.22-6.23-4.1-7.11-8.07c-0.55-2.48-0.32-4.92,0.66-7.27
		c1.8-4.29,5.94-6.79,10.59-6.41c2.4,0.19,4.47,1.07,6.24,2.7C370.29,445.42,370.4,445.68,370.84,445.64z"/>
	<path class="st0" d="M381.7,471.35c-0.04-0.38,0.19-0.68,0.33-1.01c0.83-1.98,1.65-3.97,2.53-5.93c0.31-0.69,0.28-1.27-0.02-1.96
		c-2.63-6.11-5.23-12.23-7.85-18.35c-0.13-0.3-0.27-0.59-0.38-0.89c-0.11-0.29,0-0.48,0.31-0.48c0.98-0.01,1.95,0,2.93,0
		c0.23,0,0.39,0.11,0.48,0.3c0.14,0.29,0.26,0.59,0.39,0.89c1.96,4.72,3.91,9.44,5.89,14.16c0.15,0.36,0.2,0.8,0.57,1.07
		c0.32-0.33,0.42-0.76,0.59-1.16c2.03-4.73,4.05-9.47,6.07-14.21c0.5-1.16,0.31-1.05,1.58-1.05c0.81,0,1.61,0,2.41,0
		c0.13,0.53-0.16,0.86-0.31,1.22c-2.93,6.6-5.88,13.19-8.8,19.79c-1.03,2.34-2.01,4.7-2.98,7.06c-0.22,0.54-0.5,0.77-1.08,0.73
		c-0.69-0.04-1.38-0.01-2.07-0.01C382.07,471.51,381.86,471.54,381.7,471.35z"/>
	<path class="st1" d="M228.46,451.25c-0.01,0.14-0.02,0.28-0.03,0.41c-0.24,0.31-0.01,0.72-0.21,1.04c0.04,0.07,0.03,0.13-0.04,0.18
		c-0.2,0.21-0.02,0.53-0.22,0.74l0-0.01c-0.24,0.19-0.04,0.53-0.25,0.73l0,0c-0.15,0.13-0.11,0.35-0.23,0.5l0-0.01
		c-0.17,0.13-0.12,0.36-0.25,0.51c-0.45,1.32-1.25,2.43-2.09,3.51c-1.72,2.21-3.76,4.1-6,5.77c-0.13,0.09-0.28,0.15-0.42,0.22
		c-0.26,0.14-0.54,0.26-0.74,0.5l0,0c-0.27,0.13-0.54,0.26-0.73,0.49l0,0c-0.27,0.13-0.53,0.26-0.74,0.47l-0.01,0
		c-0.14,0.12-0.39,0.06-0.46,0.28l0,0c-0.58,0.3-1.23,0.49-1.72,0.96l0,0c-1.48,0.42-2.73,1.41-4.28,1.68
		c-0.72,0.13-1.43,0.32-2.1-0.18c-0.12-1.07,0.7-1.34,1.44-1.68c3.77-0.2,7.03-1.76,9.66-4.29c3.1-2.98,3.41-5.64,0.77-8.87
		c-2.18-2.67-5.04-4.13-8.48-4.41c-0.74-0.06-1.44-0.22-2.09-0.57c-0.16-0.1-0.31-0.22-0.44-0.35c-0.13-0.14-0.24-0.3-0.31-0.49
		c-0.07-0.44-0.21-0.91,0.37-1.15c0.12,0.05,0.21,0.13,0.28,0.24c0.38,0.71,1.03,0.73,1.69,0.58c2.69-0.61,5.07,0.2,7.48,1.32
		c1.94,0.91,3.61,2.13,5.2,3.51c0.18,0.16,0.39,0.29,0.6,0.41c1.86,1.12,2.68,0.83,3.41-1.23c0.27-0.77,0.35-1.57,0.38-2.39
		c0.01-0.43-0.15-1.01,0.52-1.17c0.09,0.2,0.13,0.4,0.05,0.62C228.6,449.82,228.62,450.54,228.46,451.25z"/>
	<path class="st2" d="M209.39,430.76c0.55-0.11,1.11-0.3,1.62,0.12c-0.39,2.75-1.05,5.44-1.62,8.15c-1.46,6.1-2.71,12.24-4.04,18.36
		c-0.97,4.46-2.04,8.91-2.73,13.43c-0.03,0.2-0.13,0.38-0.26,0.54c-0.18-0.01-0.28-0.13-0.34-0.29c-0.14-0.39-0.11-0.79-0.08-1.19
		c0.17-2.16,0.43-4.31,0.81-6.44c0.05-0.3,0.19-0.64-0.19-0.86c0.3-2.22,0.79-4.4,1.22-6.59c0.1-0.34,0.19-0.69,0.23-1.05
		c0.02-0.12,0.05-0.23,0.08-0.35c0.07-0.23,0.14-0.46,0.2-0.69c0.02-0.13,0.06-0.25,0.1-0.37c0.16-2.18,0.29-4.36,0.29-6.55
		c0-1.48,0.38-2.9,0.75-4.3c0.99-3.68,2.08-7.33,2.7-11.09c0.04-0.25,0.14-0.46,0.31-0.65c0.05-0.06,0.1-0.07,0.17-0.03
		C208.85,430.78,209.14,430.88,209.39,430.76z"/>
	<path class="st3" d="M193.05,461.95c-1.07-0.19-2.04-0.59-2.94-1.19c-1.63-1.79-2.95-3.73-3.26-6.24
		c-0.36-2.96,0.43-5.53,2.34-7.79c0.78-0.93,1.85-1.21,2.97-1.06c1.78,0.24,3.41,0.83,4.89,2c2.12,1.69,4.29,3.33,6.54,4.86
		c0.38,0.26,0.88,0.5,0.69,1.13c-0.95,0.29-1.61-0.38-2.36-0.73c-2.2-1.04-4.34-2.21-6.75-2.74c-2-0.45-3.6,0.09-4.88,1.67
		c-1.02,1.26-0.93,2.74-0.7,4.19c0.26,1.66,1.13,3,2.35,4.17C192.41,460.69,193.21,461.03,193.05,461.95z"/>
	<path class="st4" d="M193.05,461.95c-0.05-0.25-0.23-0.42-0.4-0.59c-0.4-0.4-0.79-0.82-1.21-1.2c-1.16-1.04-1.79-2.37-2.15-3.86
		c-0.23-0.96-0.19-1.94-0.06-2.9c0.1-0.75,0.42-1.47,1.05-2c0.58-0.49,1.06-1.05,1.82-1.36c0.96-0.39,1.9-0.42,2.85-0.21
		c1.9,0.42,3.73,1.02,5.4,2.06c0.07,0.04,0.14,0.1,0.22,0.1c0.89,0.06,1.49,0.75,2.26,1.08c0.48,0.21,0.95,0.43,1.46,0.55
		c0.16,0.15,0.11,0.34,0.11,0.53c-0.01,0.14-0.07,0.23-0.2,0.28c-1.95-0.38-3.8-1.12-5.75-1.52c-2.01-0.41-4.02,0.3-4.91,1.8
		c-0.54,0.92-0.72,1.87-0.32,2.9c0.63,1.63,1.17,3.3,2.81,4.26c0.25,0.15,0.57,0.36,0.45,0.77
		C195.29,462.65,194.14,462.41,193.05,461.95z"/>
	<path class="st5" d="M204.28,454.1c0-0.16,0-0.33,0-0.49c-0.67-0.9-1.64-1.41-2.56-1.99c-0.42-0.26-0.81-0.52-1.16-0.87
		c-0.2-0.2-0.41-0.41-0.67-0.51c-0.29-0.11-0.46-0.29-0.64-0.52c-0.15-0.19-0.34-0.36-0.54-0.47c-0.87-0.46-1.6-1.09-2.35-1.7
		c-0.82-0.67-1.76-1.13-2.83-1.27c-0.28-0.04-0.55-0.12-0.82-0.22c-0.72-0.26-1.43-0.08-2.14,0.05c-0.49,0.09-0.88,0.42-1.18,0.81
		c-0.35,0.45-0.7,0.89-0.99,1.37c-0.71,1.18-1.1,2.47-1.31,3.83c-0.19,1.26,0.12,2.46,0.27,3.68c0.04,0.31,0.15,0.65,0.32,0.91
		c0.7,1.04,1.11,2.25,2,3.17c0.23,0.23,0.35,0.54,0.42,0.87c-0.47-0.14-0.9-0.36-1.22-0.74c-1.14-0.95-2.02-2.11-2.58-3.47
		c-1.58-3.84-0.79-7.42,1.39-10.79c0.44-0.68,1.03-1.26,1.44-1.96c0.7-1.21,1.89-1.76,3.06-2.29c0.95-0.43,1.79,0,2.51,0.73
		c1.88,1.91,3.53,4,5.22,6.07c0.97,1.19,2.01,2.33,3.26,3.24c0.13,0.1,0.25,0.22,0.37,0.34c0.11,0.11,0.21,0.22,0.31,0.34
		c0.1,0.1,0.2,0.21,0.31,0.32c0.11,0.1,0.21,0.21,0.3,0.32c0.08,0.13,0.15,0.26,0.18,0.41c-0.01,0.2,0.04,0.4-0.11,0.57
		c0,0.08-0.01,0.16-0.01,0.24C204.44,454.21,204.36,454.21,204.28,454.1z"/>
	<path class="st6" d="M196.48,462.64c-0.44-0.35-0.88-0.7-1.33-1.04c-0.62-0.48-1.15-1.01-1.38-1.8c-0.23-0.78-0.66-1.47-0.94-2.24
		c-0.4-1.1-0.12-2.05,0.38-3c0.67-1.26,1.73-1.87,3.14-1.94c0.2-0.01,0.4-0.05,0.59-0.12c0.4-0.14,0.78-0.12,1.19-0.02
		c1.17,0.31,2.37,0.53,3.52,0.9c0.88,0.28,1.8,0.47,2.61,0.95c0.07,0.05,0.09,0.11,0.07,0.16c-0.02,0.06-0.04,0.09-0.06,0.09
		c0,0.08-0.01,0.16-0.01,0.24c-0.11,0.16-0.19,0.34-0.39,0.4c-1.25,0-2.46-0.38-3.73-0.33c-2.47,0.09-3.61,1.85-2.58,4.14
		c0.76,1.69,1.9,2.97,3.8,3.4c0.12,0.03,0.2,0.13,0.27,0.23c-1.11,0.3-2.25,0.2-3.37,0.18
		C197.67,462.83,197.06,462.88,196.48,462.64z"/>
	<path class="st7" d="M209.16,439c0.05-1.13,0.4-2.21,0.6-3.31c0.25-1.42,0.59-2.82,0.88-4.24c0.05-0.26,0.16-0.45,0.39-0.57
		c0.23,0.37,0.16,0.78,0.16,1.18c0.01,1.5-0.19,2.98-0.39,4.46c-0.12,0.92-0.31,1.83-0.46,2.75c-0.11,0.54,0.26,1.07,0.04,1.61
		c-0.13,0.39-0.15,0.8-0.25,1.2c-0.1,0.33-0.15,0.66-0.2,1c-0.01,0.11-0.04,0.22-0.07,0.33c-0.13,0.37-0.14,0.77-0.24,1.15
		c-0.08,0.27-0.13,0.55-0.14,0.83c-0.01,0.24-0.04,0.47-0.1,0.7c-0.13,0.4-0.1,0.86-0.45,1.17c-0.4,0.34-0.19,0.81-0.24,1.22
		c0,0.05,0,0.1,0,0.15c-0.01,0.21-0.08,0.41-0.13,0.61c-0.08,0.44-0.07,0.9-0.2,1.34c-0.75,3.18-1.54,6.35-2.06,9.57
		c-0.22,1.38,0.27,2.71,0.45,4.06c0.1,0.76,0.79,0.82,1.4,0.89c0.72,0.41,0.33,1,0.2,1.5c-0.24,0.94-0.79,1.78-0.92,2.76
		c-0.08,0.25-0.2,0.48-0.38,0.69c-0.36,0.34-0.77,0.45-1.24,0.24c-0.52-0.74-0.46-1.52-0.15-2.3c0.36-0.91,0.34-1.82,0.02-2.73
		c-0.12-0.33-0.16-0.79-0.63-0.79c-0.37,0-0.47,0.39-0.65,0.65c-0.17,0.27-0.15,0.91-0.77,0.46c-0.01-1.67,0.54-3.25,0.88-4.86
		c1.48-6.98,2.92-13.96,4.5-20.91C209.08,439.55,208.97,439.25,209.16,439z"/>
	<path class="st8" d="M228.41,448.5c-0.29,0.25-0.24,0.59-0.22,0.91c0.06,0.86-0.01,1.72-0.28,2.52c-0.32,0.95-0.75,1.89-1.7,2.42
		c-0.25,0.14-0.5,0.25-0.8,0.07c-0.66-0.39-1.45-0.64-1.98-1.17c-0.75-0.75-1.73-1.2-2.4-2.03c-0.32-0.39-0.74-0.62-1.22-0.77
		c-0.82-0.25-1.57-0.67-2.3-1.11c-0.46-0.28-0.94-0.47-1.45-0.59c-0.28-0.06-0.55-0.12-0.8-0.26c-0.33-0.18-0.67-0.27-1.05-0.25
		c-0.12,0.01-0.26,0.03-0.36-0.01c-1.05-0.38-2.07-0.03-3.08,0.18c-0.51,0.11-0.95,0-1.42-0.14c-0.42-0.13-0.44-0.42-0.44-0.76
		c1.38-1.11,3.02-1.05,4.63-0.93c2.94,0.22,5.69,1.24,8.45,2.2c0.73,0.26,1.48,0.41,2.22,0.62c1.97,0.57,3.08-0.37,2.93-2.42
		c-0.03-0.42-0.42-0.96,0.32-1.18l0.01,0.01c0.07,0.06,0.11,0.13,0.15,0.22c0.03,0.08,0.07,0.17,0.1,0.25
		c0.13,0.14,0.08,0.36,0.22,0.49c0.07,0.03,0.08,0.08,0.05,0.15c0,0.13,0.09,0.23,0.15,0.33
		C228.31,447.65,228.47,448.05,228.41,448.5z"/>
	<path class="st9" d="M201.65,462.66c-0.32-0.01-0.65-0.04-0.97-0.03c-0.39,0.01-0.7-0.08-0.92-0.44c-0.12-0.2-0.33-0.35-0.53-0.49
		c-0.78-0.53-1.3-1.22-1.76-2.07c-0.45-0.84-0.5-1.66-0.52-2.54c-0.01-0.65,0.24-1.21,0.61-1.67c0.44-0.54,1.09-0.8,1.81-0.83
		c1.58-0.07,3.14,0.03,4.66,0.49c0.17,0.24,0.17,0.49,0,0.74c0.1,0.74-0.19,1.44-0.3,2.15c-0.17,1.15-0.48,2.29-0.65,3.44
		c-0.07,0.47-0.24,0.84-0.53,1.19C202.26,462.67,201.96,462.72,201.65,462.66z"/>
	<path class="st10" d="M203.31,451.9c-0.59-0.27-1.14-0.57-1.53-1.14c-0.34-0.49-0.88-0.81-1.28-1.28c-0.99-1.17-1.96-2.35-2.9-3.56
		c-0.48-0.62-0.88-1.36-1.63-1.76c-0.14-0.07-0.26-0.21-0.33-0.35c-0.32-0.63-0.87-1.06-1.36-1.55c-0.78-0.78-1.52-0.82-2.49-0.24
		c-0.38,0.23-0.71,0.53-1.16,0.65c-0.44,0.12-0.71,0.51-0.96,0.89c-0.6,0.91-1.22,1.8-1.96,2.61c-0.21,0.23-0.33,0.55-0.49,0.83
		c-0.56,0.99-0.73,2.12-1.18,3.15c0.12,0.88-0.49,1.72-0.12,2.61c0.04,0.1,0.06,0.26,0.01,0.36c-0.38,0.88,0.03,1.66,0.32,2.44
		c0.57,1.53,1.39,2.91,2.5,4.11c0.08,0.08,0.09,0.22,0.14,0.33c-0.88-0.47-1.65-1.07-2.2-1.92c-0.02-0.16-0.11-0.27-0.25-0.34
		l0.01,0.02c-2.71-4.78-1.79-9.19,1.32-13.39c0.06-0.11,0.14-0.21,0.21-0.31c0.07-0.1,0.15-0.19,0.23-0.28
		c0.04-0.04,0.08-0.09,0.12-0.13c0.08-0.09,0.16-0.18,0.25-0.26c0.04-0.04,0.08-0.09,0.12-0.13c1.18-1.16,2.3-2.4,3.65-3.39
		c0.26-0.19,0.51-0.4,0.78-0.57c2.48-1.62,4.06-0.97,4.82,1.9c0.94,3.52,2.44,6.77,4.94,9.5c0.27,0.3,0.6,0.57,0.51,1.04
		C203.38,451.8,203.34,451.85,203.31,451.9z"/>
	<path class="st11" d="M197.2,435.55c0.81-0.62,1.69-1.11,2.66-1.45c0.68-0.14,1.25-0.55,1.89-0.78c1.2-0.43,1.9,0.02,1.93,1.3
		c0.03,1.54-0.19,3.07-0.63,4.55c-0.64,2.17-0.68,4.38-0.62,6.6c0.05,1.79,0.69,3.38,1.57,4.9c0.07,0.11,0.12,0.22,0.17,0.34
		c0.08,0.17,0.15,0.34,0.21,0.52c0.04,0.12,0.05,0.24,0.04,0.37c-0.05,0.2-0.15,0.34-0.39,0.3c-2.71-2.75-3.75-6.17-3.98-9.91
		c-0.07-1.13-0.01-2.27-0.01-3.41c0-0.53-0.04-1.06-0.22-1.56c-0.41-1.13-1.09-1.41-2.19-0.91c-0.26,0.12-0.5,0.26-0.77,0.36
		c-0.16,0.06-0.32,0.12-0.47,0.19c-0.42,0.21-0.81,0.5-1.21,0.75c-0.13,0.09-0.26,0.18-0.38,0.29c-0.47,0.46-1.01,0.82-1.55,1.17
		c-0.13,0.1-0.27,0.19-0.4,0.29c-1.46,1.32-2.95,2.62-4.2,4.15h0c-0.08,0.08-0.16,0.16-0.24,0.24v0c-0.08,0.08-0.16,0.16-0.24,0.24
		c-0.19,0.22-0.31,0.58-0.68,0.47c-0.2-0.06-0.2-0.28-0.04-0.45l0.01-0.01c0.07-0.1,0.17-0.17,0.21-0.28l-0.02,0.02
		c0.14-0.08,0.23-0.18,0.24-0.35c-0.01-0.07,0.02-0.12,0.09-0.14c0.05-0.09,0.11-0.16,0.19-0.22l0-0.01
		c0.08-0.09,0.17-0.16,0.23-0.27l-0.01,0.01c0.11-0.07,0.2-0.15,0.24-0.28l-0.02,0.02c0.13-0.05,0.23-0.14,0.25-0.28l-0.03,0.03
		c0.21-0.05,0.15-0.32,0.33-0.4l0.04-0.04c0.04-0.1,0.1-0.17,0.2-0.21l0.03-0.03c0.05-0.09,0.12-0.17,0.21-0.22l0.02-0.02
		c0.06-0.09,0.13-0.17,0.22-0.23l0.02-0.02c0.06-0.09,0.14-0.17,0.23-0.23l0.02-0.02c0.06-0.09,0.14-0.17,0.23-0.23l0.01-0.01
		c0.07-0.09,0.14-0.16,0.23-0.23l0.01-0.01c0.06-0.09,0.14-0.16,0.23-0.22l0.03-0.02c0.05-0.09,0.12-0.16,0.22-0.2l0.04-0.04
		c0.04-0.1,0.1-0.16,0.2-0.19l0.05-0.04c0.08-0.17,0.35-0.12,0.4-0.33l-0.03,0.03c0.14-0.03,0.23-0.13,0.28-0.25l-0.02,0.02
		c0.12-0.05,0.2-0.14,0.27-0.25l-0.01,0.01c0.1-0.06,0.18-0.15,0.27-0.23l0.01-0.01c0.07-0.08,0.15-0.15,0.25-0.21l0.03-0.02
		c0.09-0.17,0.35-0.11,0.43-0.31l-0.03,0.03c0.13-0.04,0.2-0.13,0.29-0.22l0,0c0.08-0.08,0.16-0.15,0.26-0.2l0.03-0.02
		c0.09-0.17,0.34-0.12,0.43-0.3l-0.02,0.02c0.12-0.04,0.19-0.14,0.28-0.22l0,0c0.12-0.15,0.38-0.09,0.46-0.3l-0.03,0.03
		c0.13-0.03,0.21-0.13,0.29-0.22l0,0c0.13-0.14,0.39-0.08,0.47-0.3l-0.03,0.03c0.14-0.02,0.21-0.12,0.3-0.22l0,0
		c0.13-0.14,0.38-0.08,0.48-0.29l-0.03,0.02c0.13-0.03,0.2-0.14,0.29-0.21l0.01-0.01C196.86,435.68,197.1,435.72,197.2,435.55z"/>
	<path class="st12" d="M227.46,445.81c-0.23,0.17-0.29,0.4-0.16,0.64c0.57,1.05-0.02,1.95-0.39,2.86c-0.16,0.4-0.6,0.57-0.99,0.61
		c-0.6,0.07-1.21,0.15-1.78-0.16c-0.36-0.2-0.74-0.31-1.16-0.29c-0.16,0.01-0.35,0.01-0.47-0.08c-0.82-0.56-1.86-0.52-2.69-1.04
		c-0.2-0.12-0.45-0.21-0.69-0.22c-0.82-0.04-1.54-0.46-2.32-0.64c-0.66-0.16-1.28-0.38-1.98-0.34c-0.46,0.03-0.94-0.17-1.41-0.29
		c-0.4-0.1-0.81-0.12-1.2-0.04c-1.1,0.24-2.24,0.28-3.29,0.7c0-0.08,0-0.16,0-0.24c0.06-0.41-0.16-0.88,0.25-1.22
		c0.47-0.58,1.12-0.51,1.78-0.56c3.85-0.3,7.58,0.59,11.35,1.06c0.61,0.08,1.2,0.16,1.81,0.01c0.92-0.22,1.69-0.59,1.85-1.66
		c0.04-0.27,0.13-0.57,0.52-0.56l0.02,0.03c0.08,0.06,0.14,0.13,0.18,0.21C227.04,444.93,227.33,445.32,227.46,445.81z"/>
	<path class="st13" d="M204.04,451.17c-0.37-0.38-0.68-0.8-0.8-1.33c-0.02-0.08-0.06-0.15-0.1-0.22c-0.97-1.36-0.97-2.95-1.05-4.52
		c-0.02-0.4,0.02-0.81-0.01-1.22c-0.11-1.6,0.19-3.14,0.62-4.66c0.43-1.52,0.58-3.09,0.7-4.65c0.02-0.23-0.07-0.48-0.14-0.71
		c-0.09-0.31-0.33-0.44-0.64-0.47c-0.55-0.05-1.07,0.13-1.5,0.41c-0.41,0.26-0.81,0.33-1.26,0.3c1.18-0.81,2.48-1.34,3.85-1.72
		c0.16-0.04-0.04-0.01,0.12-0.03c0.68-0.1,1.39-0.74,2.04-0.03c0.69,0.75,0.49,1.65,0.25,2.53c-0.51,1.91-1.23,3.76-1.78,5.67
		c-0.89,3.13-1.31,6.25-0.18,9.41C204.31,450.35,204.41,450.79,204.04,451.17z"/>
	<path class="st14" d="M226.47,444.35c-0.3,0.24-0.22,0.59-0.23,0.9c-0.02,0.58-0.3,0.97-0.83,1.23c-1.01,0.49-2.03,0.72-3.16,0.42
		c-0.73-0.2-1.51-0.34-2.26-0.32c-0.73,0.02-1.41-0.47-2.14-0.17c-0.53-0.36-1.16-0.26-1.73-0.4c-0.84-0.21-1.68-0.16-2.52-0.2
		c-1.04-0.04-2.09,0.14-3.13,0c-0.46-0.06-0.86,0.2-1.3,0.24c0-0.24,0-0.49,0-0.73c0.11-0.16,0.2-0.34,0.39-0.43
		c3.07-0.47,6.15-0.63,9.25-0.22c1.31,0.18,2.66,0.04,3.99,0.05c0.75,0,1.15-0.49,1.43-1.12c0.14-0.33,0.08-0.73,0.33-1.02
		C225.34,443,225.97,443.6,226.47,444.35z"/>
	<path class="st15" d="M204.04,451.17c0.07-0.54-0.15-1.03-0.3-1.54c-0.42-1.44-0.85-2.89-0.66-4.4c0.21-1.59,0.34-3.2,0.9-4.73
		c0.15-0.41,0.33-0.83,0.31-1.29c-0.02-0.34,0.18-0.62,0.33-0.9c0.33-0.65,0.57-1.33,0.66-2.06c0.06-0.47,0.24-0.94,0.46-1.37
		c0.29-0.58,0.27-1.18,0.22-1.78c-0.05-0.63-0.59-1.02-1.2-0.88c-0.35,0.08-0.69,0.23-1.07,0.16c0.92-0.51,1.91-0.81,2.94-0.97
		c1.06-0.18,1.29,0.44,1.19,1.29c-0.11,0.96-0.32,1.92-0.63,2.84c-0.82,2.45-1.52,4.95-2.3,7.41c-0.68,2.15-0.56,4.38-0.32,6.6
		c0.07,0.68,0.24,1.36,0.03,2.04c-0.09,0.14-0.2,0.16-0.34,0.08C204.14,451.53,204.19,451.3,204.04,451.17z"/>
	<path class="st16" d="M204.53,451.66c0.05-0.9-0.21-1.76-0.36-2.62c-0.13-0.77-0.19-1.51,0-2.27c0.04-0.15,0.11-0.35,0.05-0.47
		c-0.34-0.69,0.01-1.34,0.03-2.01c0.03-0.67,0.25-1.24,0.46-1.86c0.3-0.91,0.68-1.81,0.8-2.77c0.04-0.3,0.28-0.49,0.36-0.75
		c0.15-0.5,0.24-1.01,0.37-1.52c0.07-0.31,0.11-0.65,0.25-0.93c0.6-1.21,0.77-2.52,1.01-3.82c0.14-0.77,0.11-0.83-0.61-1.18
		c-0.07-0.03-0.16-0.03-0.24-0.05c0.56-0.28,1.16-0.44,1.79-0.45c0.03,0.93,0,1.85-0.38,2.74c-0.12,0.29-0.11,0.63-0.16,0.95
		c-0.17,1.03-0.5,2.02-0.76,3.03c-0.25,0.97-0.53,1.93-0.78,2.89c-0.23,0.9-0.54,1.77-0.74,2.67c-0.19,0.86-0.29,1.74-0.55,2.6
		c-0.08,0.26-0.05,0.56-0.04,0.85c0.05,1.21-0.11,2.42,0,3.62c0,0.04,0.01,0.08,0,0.12c-0.25,1.03-0.24,2.08-0.28,3.12
		c0,0.1-0.13,0.2-0.19,0.29c0-0.24,0-0.49-0.01-0.73c-0.07-0.09-0.13-0.19-0.16-0.3c-0.07-0.17-0.08-0.34-0.03-0.51
		C204.45,452.11,204.34,451.84,204.53,451.66z"/>
	<path class="st17" d="M224.55,442.58c0.28,0.52,0.21,1.01-0.13,1.47c-0.14,0.2-0.29,0.39-0.41,0.6c-0.19,0.32-0.46,0.43-0.81,0.43
		c-0.16,0-0.32,0-0.49,0c-1.17,0-2.34-0.09-3.51,0c-0.4,0.03-0.77-0.04-1.17-0.22c-0.37-0.17-0.87-0.21-1.27-0.13
		c-0.77,0.16-1.53,0.05-2.29,0.08c-1.08,0.05-2.18-0.1-3.25,0.2c-0.59,0.16-1.21,0.05-1.82,0.08c-0.14-0.16-0.14-0.32,0-0.49
		c0.06-0.41-0.15-0.88,0.24-1.22c0.11,0.06,0.19,0.15,0.26,0.25c0.19,0.44,0.58,0.41,0.93,0.35c3.36-0.58,6.77-0.34,10.14-0.63
		c0.92-0.08,1.78-0.1,2.23-1.1c0.11-0.24,0.39-0.25,0.64-0.11C224.15,442.18,224.38,442.33,224.55,442.58z"/>
	<path class="st18" d="M223.85,442.12c-0.25,0.05-0.49,0.12-0.52,0.42c-0.07,0.78-0.63,1-1.26,1.06c-0.68,0.06-1.37-0.03-2.03,0.23
		c-0.55-0.2-1.11-0.01-1.65-0.06c-0.37-0.03-0.7,0.03-1.05,0.06c-0.59,0.05-1.17,0.33-1.77,0.04c-0.75,0.3-1.54-0.22-2.25,0.05
		c-0.7,0.26-1.45,0.05-2.14,0.35c-0.28,0.12-0.64,0.07-0.96,0.07c-0.43-0.01-0.45-0.04-0.57-0.72c2-0.89,4.14-1.1,6.28-1.28
		c1.33-0.11,2.67-0.37,4.01-0.27c0.98,0.07,1.68-0.78,2.64-0.66C223.07,441.53,223.49,441.77,223.85,442.12z"/>
	<path class="st19" d="M209.16,439c0.05,1.11-0.33,2.15-0.54,3.22c-0.45,2.25-0.94,4.5-1.41,6.75c-0.36,1.7-0.72,3.39-1.07,5.09
		c-0.38,1.82-0.75,3.63-1.13,5.45c-0.35,1.66-0.68,3.32-1.06,4.97c-0.1,0.44-0.14,0.88-0.14,1.32c0,0.05,0.01,0.09,0.01,0.14
		c0.01,0.24-0.01,0.48-0.02,0.72c-0.01,0.15-0.04,0.3-0.08,0.45c-0.06,0.21-0.07,0.42-0.08,0.63c0,1.86,0,1.86,2.13,2.58
		c0.27,0.14,0.64,0.06,0.8,0.4c-1.11,0.49-2.29,0.67-3.49,0.75c-0.23,0.02-0.47-0.06-0.7-0.1c-0.17-1.03,0.11-2.02,0.31-3
		c0.72-3.55,1.57-7.09,2.29-10.64c0.52-2.57,1.11-5.12,1.68-7.68c0.56-2.52,1.05-5.05,1.58-7.58c0.22-1.07,0.48-2.13,0.73-3.18
		C208.98,439.18,209.09,439.09,209.16,439z"/>
	<path class="st20" d="M222.58,441.41c-0.08,0.02-0.19,0.02-0.23,0.07c-0.58,0.72-1.4,0.9-2.25,0.91c-1.92,0.01-3.82,0.35-5.73,0.42
		c-1.18,0.05-2.27,0.48-3.41,0.67c-0.44,0.07-0.87,0.13-1.31,0.13c0-0.08,0-0.16,0-0.24c0-0.08,0-0.16,0.01-0.24
		c0.18-0.2,0.1-0.53,0.35-0.69c1.31-0.71,2.78-0.78,4.2-1.05c1.97-0.37,3.99-0.46,5.94-0.95
		C221.02,440.59,221.83,440.91,222.58,441.41z"/>
	<path class="st21" d="M220.14,440.44c-0.19,0.15-0.39,0.29-0.57,0.45c-0.22,0.2-0.47,0.29-0.77,0.29
		c-1.21-0.01-2.39,0.28-3.58,0.43c-1.04,0.13-2.07,0.31-3.09,0.54c-0.74,0.17-1.49,0.33-2.23,0.5c-0.14-0.16-0.14-0.33,0-0.49
		c0.05-0.41-0.14-0.87,0.24-1.22c1.15,0.41,2.2-0.16,3.28-0.37c1.53-0.3,3.02-0.78,4.61-0.63
		C218.77,439.94,219.47,440.1,220.14,440.44z"/>
	<path class="st22" d="M218.02,439.93c-0.4,0.05-0.81,0.01-1.18,0.22c-0.35,0.2-0.71,0.32-1.15,0.22c-0.25-0.06-0.54,0.09-0.82,0.16
		c-1.01,0.25-1.99,0.63-3.05,0.66c-0.34,0.01-0.61,0.21-0.9,0.33c-0.59,0.24-0.66,0.18-0.79-0.58c0.07-0.55-0.15-1.14,0.18-1.66
		c0.07,0.25,0.18,0.44,0.5,0.39c1.48-0.27,2.98-0.2,4.48-0.15C216.22,439.53,217.14,439.61,218.02,439.93z"/>
	<path class="st23" d="M187.46,444.13c0.02,0.21,0.03,0.42,0.33,0.24c0.13-0.08,0.26-0.17,0.39-0.26c-0.01,0.21-0.07,0.39-0.2,0.55
		c-0.66,0.77-1.11,1.67-1.6,2.55c-0.82,1.48-1.18,3.07-1.13,4.75c0.03,0.92-0.03,1.83,0.19,2.76c0.18,0.75,0.36,1.48,0.71,2.16
		c0.14,0.28,0.33,0.56,0.29,0.91c-1.25-1.34-1.78-2.97-1.93-4.74c-0.17-2.07,0.26-4.04,1.13-5.91
		C186.15,446.07,186.63,444.99,187.46,444.13z"/>
	<path class="st24" d="M206.97,469.93c0-0.2,0.05-0.38,0.24-0.49c0.22-0.21,0.26-0.67,0.73-0.49c0.78,0.07,1.56,0.22,2.32-0.16
		c0.36-0.18,0.8-0.04,1.17-0.23c0.57-0.29,1.18-0.5,1.72-0.82c0.38-0.23,0.75-0.26,1.15-0.21c-0.91,0.63-1.89,1.11-2.94,1.44
		c-0.4,0.19-0.85,0.23-1.22,0.5l0,0c-0.2,0.19-0.56-0.04-0.72,0.27l0-0.01C208.62,469.88,207.84,470.52,206.97,469.93z"/>
	<path class="st25" d="M206.97,469.93c0.84,0.09,1.65-0.14,2.47-0.2c-0.88,0.56-1.87,0.8-2.88,0.99c-0.28-0.07-0.61,0-0.81-0.3
		c-0.06-0.05-0.08-0.11-0.06-0.16c0.02-0.05,0.04-0.08,0.06-0.08C206.17,470.2,206.59,470.16,206.97,469.93z"/>
	<path class="st24" d="M214.31,467.53c0.37-0.68,1.02-0.86,1.72-0.96C215.55,467.05,214.96,467.35,214.31,467.53z"/>
	<path class="st8" d="M228.46,451.25c0-0.71,0-1.42,0-2.14C228.71,449.82,228.69,450.54,228.46,451.25z"/>
	<path class="st25" d="M210.15,469.47c0.3-0.42,0.73-0.54,1.22-0.5C211.01,469.24,210.62,469.47,210.15,469.47z"/>
	<path class="st24" d="M217.97,465.34c0.11-0.37,0.37-0.52,0.74-0.5C218.53,465.1,218.28,465.27,217.97,465.34z"/>
	<path class="st24" d="M217.23,465.82c0.11-0.37,0.36-0.53,0.73-0.49C217.81,465.62,217.55,465.77,217.23,465.82z"/>
	<path class="st24" d="M216.5,466.29c0.12-0.35,0.37-0.51,0.74-0.47C217.06,466.09,216.81,466.24,216.5,466.29z"/>
	<path class="st8" d="M228.21,452.7c0.01-0.36-0.14-0.75,0.21-1.04C228.46,452.03,228.45,452.39,228.21,452.7z"/>
	<path class="st16" d="M209.39,430.76c-0.22,0.24-0.51,0.18-0.79,0.16C208.84,430.73,209.11,430.72,209.39,430.76z"/>
	<path class="st8" d="M227.95,453.62c0-0.27-0.05-0.55,0.22-0.74C228.2,453.16,228.17,453.42,227.95,453.62z"/>
	<path class="st8" d="M227.7,454.34c0-0.27-0.05-0.56,0.25-0.73C227.98,453.89,227.91,454.14,227.7,454.34z"/>
	<path class="st25" d="M209.43,469.74c0.14-0.35,0.44-0.29,0.72-0.27C209.98,469.73,209.71,469.75,209.43,469.74z"/>
	<path class="st23" d="M197.2,435.55c-0.08,0.21-0.26,0.27-0.46,0.28C196.84,435.65,197,435.56,197.2,435.55z"/>
	<path class="st23" d="M189.18,441.97c-0.03,0.2-0.1,0.36-0.33,0.4C188.88,442.18,189,442.04,189.18,441.97z"/>
	<path class="st23" d="M196.46,436.02c-0.08,0.23-0.26,0.28-0.48,0.29C196.08,436.11,196.25,436.04,196.46,436.02z"/>
	<path class="st12" d="M227.93,446.78c-0.19-0.11-0.23-0.29-0.22-0.49C227.89,446.41,227.95,446.58,227.93,446.78z"/>
	<path class="st23" d="M195.72,436.49c-0.06,0.25-0.25,0.3-0.47,0.3C195.35,436.6,195.51,436.52,195.72,436.49z"/>
	<path class="st23" d="M194.99,436.98c-0.07,0.24-0.25,0.29-0.46,0.3C194.62,437.09,194.79,437.01,194.99,436.98z"/>
	<path class="st23" d="M194.27,437.49c-0.07,0.21-0.24,0.27-0.43,0.3C193.92,437.61,194.07,437.51,194.27,437.49z"/>
	<path class="st23" d="M191.81,439.42c-0.04,0.23-0.21,0.29-0.4,0.33C191.48,439.56,191.62,439.45,191.81,439.42z"/>
	<path class="st8" d="M227.47,454.84c-0.01-0.21,0.03-0.39,0.23-0.5C227.72,454.55,227.66,454.73,227.47,454.84z"/>
	<path class="st8" d="M227.23,455.35c-0.01-0.21,0.02-0.41,0.25-0.51C227.47,455.04,227.41,455.22,227.23,455.35z"/>
	<path class="st23" d="M193.29,438.21c-0.06,0.22-0.23,0.28-0.43,0.31C192.94,438.33,193.09,438.23,193.29,438.21z"/>
	<path class="st24" d="M216.03,466.58c0.06-0.25,0.25-0.29,0.46-0.28C216.4,466.5,216.23,466.57,216.03,466.58z"/>
	<path class="st23" d="M189.65,441.46c-0.07,0.07-0.14,0.15-0.21,0.22C189.45,441.55,189.52,441.47,189.65,441.46z"/>
	<path class="st23" d="M189.9,441.21c-0.07,0.08-0.15,0.15-0.22,0.23C189.69,441.3,189.77,441.23,189.9,441.21z"/>
	<path class="st23" d="M190.38,440.71c-0.08,0.08-0.15,0.15-0.23,0.23C190.17,440.81,190.25,440.74,190.38,440.71z"/>
	<path class="st23" d="M190.63,440.47c-0.08,0.08-0.15,0.15-0.23,0.23C190.41,440.56,190.49,440.49,190.63,440.47z"/>
	<path class="st23" d="M190.87,440.24c-0.08,0.07-0.16,0.14-0.23,0.22C190.66,440.33,190.74,440.25,190.87,440.24z"/>
	<path class="st23" d="M191.12,440.01c-0.07,0.07-0.15,0.14-0.22,0.2C190.92,440.09,190.99,440.02,191.12,440.01z"/>
	<path class="st23" d="M191.37,439.78c-0.07,0.06-0.14,0.13-0.2,0.19C191.18,439.86,191.24,439.79,191.37,439.78z"/>
	<path class="st23" d="M190.14,440.96c-0.08,0.08-0.15,0.15-0.23,0.23C189.93,441.06,190.01,440.98,190.14,440.96z"/>
	<path class="st23" d="M187.68,443.83c-0.07,0.09-0.14,0.19-0.21,0.28C187.47,443.97,187.54,443.87,187.68,443.83z"/>
	<path class="st23" d="M196.72,435.84c-0.1,0.07-0.19,0.14-0.29,0.21C196.48,435.9,196.58,435.84,196.72,435.84z"/>
	<path class="st23" d="M192.07,439.2c-0.04,0.14-0.14,0.23-0.28,0.25C191.82,439.3,191.92,439.22,192.07,439.2z"/>
	<path class="st23" d="M195.99,436.3c-0.06,0.13-0.16,0.2-0.3,0.22C195.73,436.37,195.84,436.31,195.99,436.3z"/>
	<path class="st23" d="M194.53,437.29c-0.09,0.07-0.19,0.15-0.28,0.22C194.29,437.37,194.38,437.3,194.53,437.29z"/>
	<path class="st23" d="M188.42,442.87c-0.08,0.09-0.15,0.18-0.23,0.27C188.2,442.99,188.28,442.9,188.42,442.87z"/>
	<path class="st23" d="M188.65,442.6c-0.03,0.14-0.11,0.23-0.24,0.28C188.43,442.74,188.5,442.64,188.65,442.6z"/>
	<path class="st23" d="M186.44,457.77c0.16,0.06,0.24,0.18,0.25,0.34C186.54,458.04,186.46,457.93,186.44,457.77z"/>
	<path class="st23" d="M192.32,438.97c-0.05,0.13-0.14,0.21-0.27,0.25C192.08,439.07,192.18,438.99,192.32,438.97z"/>
	<path class="st23" d="M195.25,436.79c-0.06,0.13-0.15,0.2-0.29,0.22C195,436.87,195.11,436.8,195.25,436.79z"/>
	<path class="st23" d="M192.58,438.75c-0.09,0.08-0.18,0.15-0.27,0.23C192.35,438.85,192.44,438.77,192.58,438.75z"/>
	<path class="st23" d="M192.83,438.54c-0.08,0.07-0.16,0.14-0.25,0.21C192.61,438.62,192.69,438.55,192.83,438.54z"/>
	<path class="st23" d="M187.91,443.51c-0.02,0.16-0.09,0.28-0.24,0.35C187.68,443.69,187.76,443.58,187.91,443.51z"/>
	<path class="st12" d="M227.61,446.03c-0.05-0.07-0.1-0.14-0.15-0.22C227.57,445.85,227.63,445.92,227.61,446.03z"/>
	<path class="st23" d="M188.18,443.14c-0.06,0.07-0.12,0.15-0.19,0.22C187.99,443.23,188.07,443.17,188.18,443.14z"/>
	<path class="st23" d="M188.88,442.34c-0.02,0.15-0.11,0.24-0.25,0.28C188.65,442.48,188.73,442.38,188.88,442.34z"/>
	<path class="st14" d="M226.67,444.59c-0.06-0.07-0.12-0.14-0.18-0.21C226.61,444.39,226.68,444.46,226.67,444.59z"/>
	<path class="st12" d="M228.13,447.26c-0.05-0.11-0.1-0.22-0.15-0.33C228.11,447,228.15,447.12,228.13,447.26z"/>
	<path class="st23" d="M193.55,438.01c-0.1,0.07-0.19,0.15-0.29,0.22C193.3,438.09,193.4,438.03,193.55,438.01z"/>
	<path class="st23" d="M193.8,437.81c-0.09,0.07-0.17,0.13-0.26,0.2C193.58,437.88,193.67,437.81,193.8,437.81z"/>
	<path class="st23" d="M189.41,441.71c-0.07,0.07-0.13,0.14-0.2,0.21C189.22,441.8,189.29,441.73,189.41,441.71z"/>
	<path class="st26" d="M271.71,453.79c-0.13,2.61-1.18,4.61-3.58,5.68c-3.6,1.6-7.89-0.41-8.52-4.69c-0.21-1.41-0.04-2.75,0.58-4.03
		c1.07-2.21,3.42-3.75,6.6-3.24c2.48,0.4,4.51,2.54,4.84,5.12C271.67,453.04,271.69,453.44,271.71,453.79z"/>
	<path class="st26" d="M331.54,453.73c-0.02-1.28,0.21-2.5,0.75-3.66c1.42-3.07,4.51-4.45,7.47-4.15c4.58,0.46,6.65,4.1,6.76,7.35
		c0.05,1.4-0.14,2.76-0.76,4.02c-1.25,2.54-3.3,3.93-6.14,4.15c-1.06,0.08-2.12,0.01-3.12-0.36c-2.86-1.05-4.44-3.15-4.88-6.13
		C331.56,454.55,331.56,454.14,331.54,453.73z"/>
	<path class="st26" d="M371.02,453.73c0.03,1.33-0.23,2.64-0.88,3.84c-1.27,2.36-3.27,3.66-5.95,3.86
		c-0.89,0.07-1.78,0.03-2.66-0.21c-2.32-0.63-3.95-2.03-4.86-4.24c-0.91-2.2-0.9-4.43,0.01-6.63c1.37-3.35,4.72-4.78,7.77-4.42
		C368.59,446.42,371.12,449.83,371.02,453.73z"/>
	<path class="st27" d="M209.16,448.98c0.39,0.11,0.78,0.21,1.16,0.34c0.27,0.1,0.55,0.16,0.83,0.14c1.56-0.13,2.93,0.47,4.3,1.08
		c0.37,0.16,0.72,0.37,1.09,0.54c1.51,0.7,2.66,1.81,3.66,3.11c0.42,0.55,0.8,1.11,1.1,1.74c0.79,1.61,0.77,3.21-0.1,4.77
		c-0.45,0.81-0.9,1.65-1.58,2.29c-1.11,1.06-2.32,2.01-3.7,2.71c-0.29,0.14-0.57,0.31-0.9,0.34c-0.16,0.01-0.36,0.03-0.45,0.14
		c-0.67,0.74-1.69,0.73-2.5,1.19c-0.17,0.09-0.39,0.12-0.59,0.13c-0.57,0.01-1.13,0.01-1.68,0.21c-0.17,0.06-0.3-0.08-0.41-0.2
		c-0.33-1.38,0.39-2.43,1.08-3.5c1.25-0.56,2.62-0.82,3.8-1.56c1.13-0.72,2.27-1.42,2.9-2.68c1.22-2.43,0.49-4.41-1.4-6.36
		c-1.24-1.28-2.85-1.98-4.47-2.65c-0.86-0.35-1.72-0.72-2.21-1.6C209.13,449.09,209.15,449.04,209.16,448.98z"/>
	<path class="st28" d="M210.63,464.09c-0.56,1.08-0.96,2.22-1.22,3.41c-0.55,0.43-1.19,0.76-1.46,1.46
		c-0.24,0.16-0.49,0.32-0.73,0.49c-0.04-0.62,0.09-1.19,0.37-1.75c0.37-0.74,0.77-1.5,0.6-2.39c-0.06-1,0.53-1.67,1.15-2.32
		c0.39-0.18,0.79-0.36,1.23-0.21C211,463.19,210.85,463.64,210.63,464.09z"/>
	<path class="st27" d="M208.67,448.49c0.08,0.08,0.16,0.16,0.24,0.24c-0.03,0.03-0.07,0.05-0.1,0.08c-0.09,0.01-0.16-0.02-0.22-0.09
		C208.59,448.64,208.62,448.56,208.67,448.49L208.67,448.49z"/>
	<path class="st27" d="M208.92,448.74c0.08,0.08,0.16,0.16,0.24,0.24v0C208.94,449.04,208.86,448.96,208.92,448.74L208.92,448.74z"
		/>
	<path class="st4" d="M204.04,455.81c0-0.25,0-0.49,0-0.74c0.08-0.08,0.16-0.16,0.24-0.24
		C204.26,455.17,204.38,455.54,204.04,455.81z"/>
	<path class="st10" d="M204.29,454.59c0-0.08-0.01-0.17-0.01-0.25c0-0.08,0-0.16,0-0.24c0.08,0,0.16,0,0.24,0
		C204.52,454.3,204.48,454.48,204.29,454.59z"/>
	<path class="st10" d="M203.55,452.15c-0.08-0.08-0.16-0.16-0.24-0.24v0c0.11-0.04,0.21-0.02,0.28,0.08
		C203.57,452.04,203.56,452.09,203.55,452.15z"/>
	<path class="st10" d="M204.04,452.63c-0.08-0.08-0.16-0.16-0.24-0.24c0.04-0.02,0.08-0.04,0.12-0.06c0.09,0.03,0.15,0.09,0.18,0.18
		C204.07,452.55,204.06,452.59,204.04,452.63z"/>
	<path class="st10" d="M204.28,452.88c-0.08-0.08-0.16-0.16-0.24-0.24v0c0.12-0.05,0.21-0.02,0.29,0.08
		C204.31,452.77,204.3,452.82,204.28,452.88z"/>
	<path class="st10" d="M204.53,452.88c0,0.08,0,0.16,0,0.24c-0.08-0.08-0.16-0.16-0.24-0.24v0
		C204.36,452.76,204.45,452.77,204.53,452.88z"/>
	<path class="st10" d="M203.79,452.39c-0.08-0.08-0.16-0.16-0.24-0.24v0C203.78,452.08,203.86,452.16,203.79,452.39L203.79,452.39z"
		/>
	<path class="st29" d="M209.41,463.11c-0.16,0.35-0.5,0.6-0.53,1.02c-0.05,0.49-0.65,0.67-0.69,1.18c-0.16,0.04-0.31,0.08-0.47,0.11
		c-0.52,0.09-1.01-0.12-1.19-0.57c-0.13-0.33-0.27-0.69-0.27-1.04c-0.01-0.65-0.08-1.28-0.25-1.91c-0.21-0.75-0.16-1.49,0-2.24
		c0.43-1.96,0.85-3.92,1.27-5.88c0.14-0.67,0.31-1.33,0.42-2c0.08-0.48,0.18-0.94,0.49-1.33c0.05,0.05,0.1,0.1,0.15,0.15
		c0.39,0.92,0.21,1.91,0.28,2.86c0.19,2.38,0.64,4.7,1.35,6.97C209.95,461.36,209.93,462.29,209.41,463.11z"/>
	<path class="st30" d="M209.41,463.11c0.02-0.55-0.03-1.09,0.17-1.63c0.12-0.32,0.06-0.7,0.08-1.05c0.37-1.48,1.34-2.7,1.65-4.23
		c0.31-1.52,0.24-2.84-0.91-4.01c-0.79-0.8-1.48-1.7-2.02-2.69c-0.06-0.18-0.08-0.36,0.06-0.52c0.01-0.2,0.05-0.38,0.24-0.49
		c0,0.08,0,0.16,0,0.24c0.63,0.88,1.47,1.5,2.37,2.06c1.78,1.09,2.72,2.61,2.59,4.74c-0.15,2.45-0.98,4.66-2.29,6.71
		c-0.17,0.27-0.37,0.54-0.71,0.63C210.21,462.89,209.84,463.18,209.41,463.11z"/>
	<path class="st31" d="M205.75,470.18c0,0.08,0,0.16,0,0.25c-0.57,0.05-1.12-0.06-1.65-0.26c-0.5-0.2-0.79-0.54-0.78-1.09
		c0.01-0.52,0-1.05,0.01-1.57c0.15-0.13,0.09-0.36,0.24-0.49c0-0.16,0-0.33,0.01-0.49c0.22-0.2,0.02-0.53,0.24-0.73
		c0,0,0-0.01,0-0.01c0.14-0.1,0.23-0.23,0.23-0.41c0.02-0.53,0.3-0.9,0.69-1.23c0.3-0.26,0.75-0.25,0.91,0.09
		c0.51,1.08,0.81,2.21,0.5,3.41c-0.1,0.39-0.29,0.75-0.42,1.13c-0.14,0.4,0.19,0.69,0.09,1.04
		C205.77,469.93,205.76,470.06,205.75,470.18z"/>
	<path class="st29" d="M208.43,448.98c0,0.16,0,0.32,0,0.49c0.18,0.39,0.42,0.79-0.24,0.97c0,0,0,0,0,0c0-0.32,0-0.63,0-0.95
		C208.19,449.29,208.26,449.11,208.43,448.98z"/>
	<path class="st18" d="M209.89,442.15c0,0.16,0,0.33,0,0.49c-0.01,0.2-0.05,0.38-0.24,0.49
		C209.68,442.79,209.54,442.41,209.89,442.15z"/>
	<path class="st12" d="M209.4,444.59c0,0.16,0,0.33,0,0.49c-0.08,0.08-0.16,0.16-0.24,0.24
		C209.17,445.06,209.12,444.77,209.4,444.59z"/>
	<path class="st32" d="M203.79,452.39c-0.08-0.08-0.16-0.16-0.24-0.24c-0.08-0.08-0.16-0.16-0.24-0.24c0.01-0.42-0.3-0.64-0.54-0.91
		c-1.76-1.94-3.17-4.09-4.04-6.57c-0.11-0.3-0.24-0.6-0.34-0.91c-0.24-0.77-0.67-1.46-0.74-2.3c-0.05-0.55-0.33-1.07-0.59-1.58
		c-0.31-0.62-0.82-0.88-1.47-0.88c-0.75-0.01-1.44,0.24-2.05,0.66c-0.93,0.65-1.83,1.33-2.65,2.12c-0.73,0.7-1.36,1.5-2.2,2.09
		c0.01-0.2,0.05-0.4,0.2-0.55c1.31-1.28,2.52-2.68,3.94-3.84c0.07-0.09,0.17-0.15,0.24-0.24c0.57-0.41,1.14-0.81,1.71-1.22
		c0.07-0.09,0.17-0.15,0.24-0.24c0.41-0.24,0.81-0.49,1.22-0.73c0.07-0.09,0.17-0.15,0.24-0.24c0.47-0.04,0.82-0.31,1.2-0.55
		c0.83-0.54,1.79-0.27,2.24,0.62c0.29,0.58,0.49,1.19,0.47,1.86c-0.02,0.97,0.02,1.95-0.01,2.92c-0.05,1.8,0.3,3.52,0.79,5.24
		c0.24,0.86,0.61,1.66,0.94,2.49c0.06,0.15,0.12,0.31,0.22,0.42c0.59,0.67,1.02,1.45,1.52,2.19c0.12,0.17,0.25,0.31,0.44,0.4
		c0.15,0.01,0.15,0.17,0.24,0.24c0,0.16,0,0.32,0,0.49c-0.08,0-0.16,0-0.24,0c-0.08-0.08-0.16-0.16-0.24-0.24
		C203.96,452.55,203.88,452.47,203.79,452.39z"/>
	<path class="st23" d="M188.18,444.11c0.08-0.08,0.16-0.16,0.24-0.24C188.34,443.94,188.26,444.02,188.18,444.11z"/>
	<path class="st23" d="M188.43,443.86c0.08-0.08,0.16-0.16,0.24-0.24C188.59,443.7,188.51,443.78,188.43,443.86z"/>
	<path class="st13" d="M204.53,452.39c-0.08-0.08-0.16-0.16-0.24-0.24c0-0.16,0-0.32,0-0.49c0.08,0,0.16,0,0.24,0
		C204.53,451.9,204.53,452.15,204.53,452.39z"/>
	<path class="st13" d="M204.04,451.17c0.2,0.1,0.24,0.29,0.24,0.49C204.09,451.55,204.04,451.37,204.04,451.17z"/>
	<path class="st23" d="M196.48,436.55c-0.08,0.08-0.16,0.16-0.24,0.24C196.31,436.72,196.39,436.63,196.48,436.55z"/>
	<path class="st23" d="M193.06,438.99c-0.08,0.08-0.16,0.16-0.24,0.24C192.9,439.15,192.98,439.07,193.06,438.99z"/>
	<path class="st23" d="M195.01,437.53c-0.08,0.08-0.16,0.16-0.24,0.24C194.85,437.69,194.93,437.61,195.01,437.53z"/>
	<path class="st7" d="M203.79,465.8c-0.01,0.27,0.04,0.55-0.24,0.73C203.56,466.25,203.51,465.97,203.79,465.8z"/>
	<path class="st7" d="M203.55,467.01c0,0.2-0.04,0.38-0.24,0.49C203.31,467.29,203.36,467.12,203.55,467.01z"/>
	<path class="st33" d="M210.63,462.87c0.18-0.31,0.35-0.63,0.55-0.93c0.36-0.54,0.7-1.08,0.87-1.71c0.03-0.12,0.03-0.26,0.1-0.35
		c0.85-0.98,0.79-2.26,1.09-3.4c0.2-0.75,0.12-1.61,0-2.4c-0.2-1.33-1.08-2.25-2.18-2.9c-0.86-0.51-1.49-1.23-2.18-1.89
		c-0.15-0.15-0.19-0.35-0.21-0.55c0.08,0,0.16,0,0.24,0c0.08,0.08,0.16,0.16,0.24,0.24c0.66,0.64,1.41,1.12,2.28,1.49
		c1.44,0.61,2.95,1.13,4.08,2.3c0.31,0.32,0.7,0.51,1,0.85c0.78,0.88,1.03,2,1.57,2.99c0.16,0.29,0.15,0.65,0.08,0.95
		c-0.22,0.94-0.41,1.89-0.89,2.75c-0.16,0.29-0.33,0.57-0.6,0.76c-0.56,0.4-1.09,0.83-1.58,1.32c-0.11,0.11-0.28,0.16-0.42,0.22
		c-0.18,0.08-0.4,0.12-0.56,0.23c-1.06,0.72-2.26,1.03-3.49,1.25c-0.09-0.21-0.16-0.41-0.06-0.66
		C210.63,463.26,210.61,463.06,210.63,462.87z"/>
	<path class="st34" d="M208.19,450.44c0.36-0.26,0.21-0.64,0.24-0.97c0.34,0.16,0.62,0.41,0.8,0.72c0.51,0.87,1.16,1.61,1.87,2.31
		c0.3,0.29,0.53,0.59,0.52,1.04c-0.01,0.23,0.11,0.46,0.16,0.7c0.11,0.56,0.12,1.11-0.08,1.66c-0.18,0.49-0.27,1.01-0.42,1.51
		c-0.17,0.57-0.26,1.15-0.74,1.61c-0.4,0.38-0.44,1.03-0.88,1.42c-0.17-0.91-0.62-1.75-0.78-2.67c-0.19-1.07-0.47-2.12-0.44-3.22
		c0-0.16,0.03-0.34-0.02-0.48C208.02,452.87,208.24,451.65,208.19,450.44z"/>
</g>
</svg>
