<svg width="182" height="91" viewBox="0 0 182 91" fill="none" xmlns="http://www.w3.org/2000/svg">
<path d="M82.5961 0.0679855C82.0775 0.1064 80.2528 0.221649 78.5625 0.336891C51.7485 2.104 27.5083 10.0752 13.1602 21.8304C0.579095 32.1449 -3.18562 44.6684 2.74957 56.5195C6.03409 63.0886 12.219 69.1774 21.0353 74.498C42.4328 87.3864 76.8914 93.3792 109.775 89.9218C138.203 86.9446 162.327 77.2063 174.159 63.9529C177.828 59.8425 180.095 55.8281 181.382 51.0837C181.843 49.355 181.881 48.9325 181.881 45.379C181.881 41.864 181.843 41.3838 181.382 39.6936C179.365 32.2025 174.083 25.3646 165.631 19.3334C161.233 16.1833 154.087 12.3417 148.133 9.95997C135.917 5.04279 121.281 1.79668 105.069 0.413727C101.669 0.12561 85.2468 -0.124092 82.5961 0.0679855ZM50.0582 24.6539C55.2635 25.6335 58.9514 28.6491 60.5457 33.2205C61.1987 35.0837 61.3716 38.5603 60.9106 40.5771C60.1615 43.7656 58.7017 45.8977 52.6897 52.6396C50.2695 55.3479 48.3103 57.576 48.3103 57.6144C48.3103 57.6336 51.3836 57.6528 55.1291 57.6144L61.9478 57.576V61.7056V65.8353H45.506H29.0642L29.5252 65.2975C29.7556 65.0094 33.9814 60.1498 38.8985 54.5219C50.039 41.7296 50.3271 41.3838 50.961 40.1161C52.0366 37.9072 51.7101 35.5639 50.1351 34.1809C49.0978 33.2782 48.0414 32.9324 46.2743 32.9516C43.3163 32.9708 41.5492 34.5459 40.9922 37.6383L40.7617 38.9445H36.0558H31.3499L31.4651 37.5423C31.9645 31.78 35.5948 26.9588 40.7233 25.2109C43.3163 24.3274 47.1579 24.0969 50.0582 24.6539ZM136.282 24.9036C143.331 26.5363 149.113 30.8388 152.013 36.6011C152.359 37.2734 152.704 38.0417 152.8 38.2914L152.992 38.7524H147.365H141.756L141.391 38.0993C140.892 37.1581 139.048 35.4294 137.722 34.6227C134.918 32.9516 130.884 32.3754 127.561 33.1629C122.548 34.3538 118.687 38.2722 117.727 43.0933C117.189 45.8208 117.593 48.4907 118.956 51.1414C119.936 53.0429 122.433 55.5015 124.373 56.4811C128.349 58.4595 133.074 58.4595 137.012 56.4811C138.567 55.7128 140.796 53.7728 141.372 52.6972L141.756 52.0057H147.365C150.457 52.0057 152.992 52.0633 152.992 52.1402C152.992 52.2362 152.608 53.0621 152.128 53.9841C151.014 56.2122 149.727 57.9217 147.749 59.8233C144.637 62.8005 141.257 64.6444 136.724 65.7969C134.803 66.2771 134.361 66.3155 130.712 66.3155C127.216 66.3155 126.563 66.2579 124.949 65.8545C119.225 64.4331 114.443 61.3791 111.312 57.1918C101.881 44.5147 109.813 27.6119 126.582 24.6347C128.772 24.2505 134.092 24.385 136.282 24.9036ZM164.46 25.038C165.458 25.6527 166.361 26.8052 166.534 27.7079C166.649 28.1881 166.572 28.1305 166.092 27.3238C165.593 26.4786 164.575 25.499 164.21 25.499C164.152 25.499 164.363 25.8064 164.671 26.1713C165.343 26.9204 165.67 27.9 165.67 29.1677C165.67 30.3202 165.382 31.1845 164.652 32.1065C164.248 32.6251 164.191 32.7788 164.44 32.6443C164.959 32.3562 165.958 31.2614 166.303 30.5891C166.476 30.2626 166.611 30.1281 166.63 30.2818C166.63 30.8196 165.593 32.4138 164.901 32.894C164.075 33.4702 162.635 33.9504 161.77 33.9504C159.658 33.9504 157.333 32.4522 156.757 30.7427C156.258 29.3022 156.411 29.1485 157.045 30.4354C157.391 31.1461 157.91 31.8568 158.351 32.2025C159.273 32.9324 159.562 32.9708 158.889 32.2602C158.275 31.6263 157.794 30.493 157.814 29.7824C157.814 29.3406 157.871 29.4174 158.102 30.1473C158.371 31.0117 159.485 32.4138 159.926 32.4138C160.023 32.4138 159.965 32.1449 159.811 31.8184C159.638 31.5111 159.466 30.8004 159.427 30.2433C159.35 29.2445 159.35 29.2445 159.523 30.0513C159.754 31.1269 160.176 31.9144 160.791 32.3946L161.309 32.798H160.848C160.407 32.8172 160.407 32.8172 160.925 33.1053C161.271 33.2974 161.674 33.355 162.039 33.2782C162.654 33.1437 162.981 32.798 162.481 32.798C162.251 32.798 162.289 32.6827 162.692 32.3754C162.981 32.1449 163.422 31.5303 163.672 30.9925C164.095 30.1089 164.133 30.0705 164.018 30.6851C163.941 31.0501 163.768 31.5879 163.634 31.876C163.269 32.5867 163.538 32.5483 164.287 31.78C165.458 30.5699 165.785 28.9564 165.113 27.4966C164.805 26.8052 163.595 25.5951 163.403 25.7872C163.365 25.8256 163.48 26.1137 163.653 26.4594C163.826 26.786 163.999 27.4966 164.056 28.0537L164.133 29.0525L163.883 28.0921C163.538 26.786 163.019 25.96 162.327 25.5951L161.732 25.2878L162.404 25.3838C163.038 25.4798 163.057 25.4798 162.712 25.2109C162.5 25.0573 162.059 24.9228 161.732 24.9228C161.406 24.9228 160.964 25.0573 160.752 25.2109C160.407 25.4798 160.426 25.4798 161.06 25.3838L161.732 25.2878L161.117 25.5759C160.445 25.8832 160.003 26.4594 159.581 27.5735L159.312 28.2842L159.427 27.5159C159.504 27.1125 159.677 26.517 159.83 26.2097C160.099 25.6911 160.099 25.6719 159.773 25.8448C159.005 26.2673 158.236 27.3814 157.967 28.4762L157.833 29.0525L157.814 28.457C157.794 27.7463 158.179 26.7667 158.774 25.9984C159.197 25.4798 159.197 25.4606 158.812 25.6719C158.14 26.0176 157.026 27.4582 156.815 28.2265C156.565 29.1677 156.373 29.1677 156.546 28.2457C156.853 26.6131 157.641 25.6335 159.331 24.8268C160.253 24.385 160.58 24.3274 161.963 24.4042C163.288 24.4618 163.672 24.5579 164.46 25.038ZM76.0079 38.0225C76.0847 49.7776 76.1231 51.2566 76.4112 52.2938C77.0835 54.5988 78.332 55.9817 80.5217 56.8077C81.8662 57.3263 85.7654 57.5568 87.5517 57.211C90.2408 56.7116 92.0848 55.3287 92.8723 53.2158C93.5253 51.4871 93.6214 49.0861 93.6406 36.6779V24.9228H98.6346H103.648L103.571 39.0789C103.513 53.0237 103.513 53.2734 103.091 54.8869C102.342 57.7104 101.304 59.5352 99.3069 61.5328C97.7702 63.0694 97.3093 63.4151 95.5614 64.2603C92.2576 65.8737 89.5685 66.4115 84.805 66.4115C80.0799 66.4115 77.3524 65.8737 74.1447 64.2987C70.1495 62.3587 67.7101 59.3431 66.5193 54.8869C66.0967 53.2734 66.0967 53.0429 66.0391 39.0789L65.9622 24.9228H70.9562H75.9503L76.0079 38.0225ZM163.557 29.1485C163.211 29.379 160.349 29.379 159.811 29.1485C159.562 29.0525 160.234 28.9756 161.636 28.9756C163.134 28.9564 163.749 29.0141 163.557 29.1485Z" fill="#043221"/>
<path d="M160.867 24.6547C161.52 24.7891 162.942 24.8083 162.846 24.6739C162.807 24.597 162.269 24.5586 161.674 24.5586C161.078 24.5778 160.714 24.6163 160.867 24.6547Z" fill="#043221"/>
<path d="M160.83 33.6038C161.003 33.6807 161.425 33.7383 161.732 33.7383C162.059 33.7383 162.462 33.6807 162.635 33.6038C162.827 33.527 162.405 33.4694 161.732 33.4694C161.06 33.4694 160.638 33.527 160.83 33.6038Z" fill="#043221"/>
</svg>
